<?xml version="1.0" standalone="no"?>
<!DOCTYPE svg PUBLIC "-//W3C//DTD SVG 1.1//EN" "http://www.w3.org/Graphics/SVG/1.1/DTD/svg11.dtd" >
<svg xmlns="http://www.w3.org/2000/svg" xmlns:xlink="http://www.w3.org/1999/xlink" version="1.1">
<metadata></metadata>
<defs>
<font id="shadowregular" horiz-adv-x="618" >
<font-face units-per-em="2048" ascent="1536" descent="-512" />
<missing-glyph horiz-adv-x="661" />
<glyph horiz-adv-x="0" />
<glyph unicode="&#xd;" horiz-adv-x="1024" />
<glyph horiz-adv-x="0" />
<glyph horiz-adv-x="0" />
<glyph unicode=" "  horiz-adv-x="661" />
<glyph unicode="&#x09;" horiz-adv-x="661" />
<glyph unicode="&#xa0;" horiz-adv-x="661" />
<glyph unicode="!" horiz-adv-x="552" d="M12 147q0 37 15.5 69t40 56.5t56.5 39t66 14.5q33 0 64 -13.5t52.5 -36t32.5 -52t9 -62.5q-4 -31 -15 -60.5t-31.5 -53t-50.5 -37t-73 -11.5q-70 2 -119 45t-47 102zM12 1255q2 29 10.5 39.5t36.5 8.5h55.5h78h77h52.5q27 -2 44 -5.5t25 -11.5t10 -24.5t2 -42.5 q-2 -53 -6 -105.5t-10 -103.5q-16 -129 -31.5 -257t-31.5 -257q-2 -10 -2 -19.5t-3 -19.5q-6 -35 -16 -43t-47 -8q-43 0 -86 2t-86 2q-31 0 -31 24q-4 43 -6 85t-4 83q-8 160 -14 311.5t-15 311.5q0 8 -1 15t-1 15z" />
<glyph unicode="&#x22;" horiz-adv-x="1705" />
<glyph unicode="#" horiz-adv-x="1236" d="M6 225q4 16 7 35t10 35q12 33 19 52.5t19.5 28.5t33 11t55.5 4q31 2 48 5t27.5 12.5t14.5 27t8 45.5q2 23 -3 30t-28 7h-94q-33 0 -23 35q10 31 20.5 61.5t20.5 61.5q12 39 56 37q18 -2 36.5 -1t34.5 1q37 2 46.5 8t21.5 41q25 72 43 151q4 14 10 22.5t23 8.5q41 0 84 1 t84 1q29 0 18 -28l-49 -166q-8 -29 18 -27h58.5t58.5 4q41 2 50 11.5t22 50.5q10 35 20 69.5t21 69.5q2 6 9 13t13 7q63 2 129 0q35 0 43 -10t-2 -45q-10 -33 -18 -65.5t-19 -65.5q-4 -18 0 -24.5t25 -6.5q23 2 43 5t43 3q53 2 39 -49q-6 -18 -17 -39l-49 -110 q-29 -2 -57.5 -3t-56.5 -3q-35 0 -43.5 -5.5t-20.5 -37.5q-2 -4 -2 -10.5t-2 -10.5q-12 -41 -7 -47t46 -6h80q47 0 33 -45q-10 -31 -22.5 -60.5t-22.5 -62.5q-14 -45 -64 -43q-25 0 -50.5 -2t-49.5 0q-35 0 -43 -31q-8 -29 -15.5 -59.5t-13.5 -59.5q-4 -20 -8 -31.5 t-11.5 -17.5t-19.5 -7t-33 -1h-43v2h-22q-29 0 -45.5 3t-22.5 11.5t-4 24.5t10 45q6 23 12.5 45.5t12.5 44.5q6 33 -25 35q-2 0 -3 1t-3 1q-45 4 -70.5 4t-42 -10t-27.5 -33.5t-26 -64.5q0 -2 -1 -3.5t-1 -5.5q-12 -23 -23.5 -47t-21.5 -49q-41 0 -80 -1t-77 1 q-14 0 -20.5 10.5t-2.5 26.5q8 25 15.5 49.5t13.5 48.5q8 29 1 37t-38 12q-20 2 -40 1t-40 -1q-18 2 -27.5 9.5t-5.5 27.5zM448.5 440.5q-4.5 -18.5 2 -25.5t25.5 -8t54 1q20 0 40 -1t40 1q6 0 14.5 2t10.5 6q6 25 14 49t6 47q-2 18 -20.5 17t-34.5 -1q-20 2 -39.5 1 t-40.5 1q-43 6 -57 -38q-10 -33 -14.5 -51.5z" />
<glyph unicode="$" horiz-adv-x="1196" d="M8 1241q0 33 10.5 45t42.5 14q23 2 46.5 1t48.5 -1q86 -4 173 -7t173 -7q51 -2 101 -4t102 -8q59 -6 114 -28.5t96 -71.5q53 -66 84 -141t11 -165q-10 -43 -19.5 -85t-25.5 -83q-76 -166 -260 -196q-72 -10 -144 -20.5t-145 -0.5q-6 2 -13.5 1t-15.5 -1q-27 0 -27 -26 v-43q0 -37 35 -37q43 -2 87 -3t87 -3q39 -2 45.5 -9.5t8.5 -44.5q2 -35 1 -55t-11.5 -29.5t-30 -11.5t-54.5 -2h-143q-35 -4 -33 -39q2 -31 3 -61.5t1 -61.5q0 -35 -12 -49t-45 -14q-59 2 -118.5 3t-119.5 3q-31 0 -36 6t-7 35q-2 78 -4 158t0 159q0 61 1 144.5t1 159v129 t-2 53.5q-2 100 -3 198.5t-3 198.5zM360 905q2 -29 1 -54.5t4 -53.5q0 -25 10 -33t35 -8q20 2 39.5 2t37.5 4q41 10 81 20.5t71 42.5q31 31 35 71t-27 71q-16 18 -39.5 34.5t-48.5 22.5q-41 8 -82 8t-84 2q-33 2 -33 -37v-57v-35z" />
<glyph unicode="%" horiz-adv-x="1429" d="M8 987q6 86 44 129t124 66q51 16 94 5t86 -40q37 -25 61.5 -59.5t34 -74.5t4.5 -83t-26 -82q-25 -43 -58.5 -71.5t-72.5 -43t-81 -11.5t-83 26q-63 33 -100 92t-27 147zM170 967q0 -23 22.5 -45.5t47.5 -24.5q23 -2 43 17.5t22 46.5q4 59 -59 63q-31 2 -54.5 -15.5 t-21.5 -41.5zM205 20q74 154 149 306q23 41 43.5 83t40.5 85q53 104 103.5 209.5t101.5 211.5q25 51 48.5 101.5t45.5 101.5q10 20 25.5 31.5t42.5 9.5q55 -2 109.5 0t107.5 2q25 2 30 -3t-5 -25q-25 -57 -50.5 -112.5t-52.5 -111.5q-72 -147 -143.5 -295.5t-143.5 -296.5 q-35 -72 -72.5 -141.5t-72.5 -140.5q-27 -55 -86 -49q-14 2 -35.5 1t-21.5 -3q-37 2 -73 2t-71 2t-20 32zM776 246q2 70 25.5 118t60.5 77.5t87 43t108 11.5q57 -4 103 -36t71 -89q41 -98 12 -187.5t-98 -144.5q-96 -74 -205 -27q-10 4 -27 13q-82 37 -111.5 84t-25.5 137z M944 264q0 -31 27.5 -55.5t58.5 -24.5q27 0 44.5 24.5t17.5 59.5q0 29 -22.5 48.5t-55.5 17.5q-25 -2 -48.5 -24.5t-21.5 -45.5z" />
<glyph unicode="&#x26;" horiz-adv-x="1386" d="M6 358q-2 66 14.5 129.5t65.5 114.5q29 29 60.5 53.5t64.5 46.5q31 20 8 46q-61 78 -71.5 165.5t6.5 180.5q8 51 40.5 89t77.5 66q72 45 149 54.5t159 -13.5q70 -20 112.5 -65t71.5 -107q25 -55 30 -117.5t-7.5 -124t-42 -114.5t-74.5 -88q-33 -23 -33 -35t29 -43 q14 -16 28.5 -29.5t26.5 -29.5q25 -29 49 0q8 12 22.5 34.5t29 46t24.5 43t12 25.5q10 41 60 39q43 -2 88 0t86 -2q29 -2 28 -31q-4 -98 -42 -186t-89 -166q-23 -31 -21.5 -41t25.5 -37q41 -41 80 -83t80 -85q4 -4 10 -11t11 -11q10 -10 18 -22.5t0 -29.5q-6 -16 -19.5 -17 t-29.5 -1h-128t-128 2q-6 0 -14.5 6t-17.5 14.5t-17.5 16.5t-12.5 12q-27 31 -63 8q-109 -66 -240 -94q-123 -27 -225 7t-191 112q-59 51 -82.5 120.5t-17.5 151.5zM342 340q10 -27 52 -48.5t71 -21.5q16 0 33.5 6.5t36.5 14.5q18 6 21 18.5t-7 26.5q-29 35 -56.5 66.5 t-56.5 66.5q-16 16 -39 2q-35 -23 -50 -60.5t-5 -70.5zM416 985q10 -35 23.5 -66.5t29.5 -64.5q2 -4 10 -6t13 0q27 18 45 52t18 63q0 35 -12.5 54t-28.5 28.5t-33.5 8.5t-27.5 -5q-20 -8 -31.5 -24.5t-5.5 -39.5z" />
<glyph unicode="'" horiz-adv-x="1705" />
<glyph unicode="(" horiz-adv-x="661" d="M12 487.5q-4 51.5 0 104.5q10 150 68.5 276.5t152.5 239.5q12 14 24.5 26.5t23.5 28.5q53 66 123.5 78t146.5 4q12 0 13 -9t-5 -17q-16 -23 -30.5 -42.5t-30.5 -37.5q-43 -47 -76 -101.5t-60 -113.5q-53 -117 -63 -240t8 -248q12 -94 45 -179t76 -167q16 -31 36 -59.5 t40 -59.5q-10 -4 -18.5 -8t-18.5 -4q-45 0 -89 -1t-91 1q-27 4 -45 29q-25 35 -48.5 68.5t-41.5 70.5q-31 66 -58.5 129t-54.5 129q-23 51 -27 102.5z" />
<glyph unicode=")" horiz-adv-x="638" d="M10 1295q6 8 29 10h86t86 -2q10 -2 21.5 -8.5t19.5 -14.5q78 -74 134 -161t83 -191q29 -115 44 -230.5t-1 -236.5q-10 -84 -39 -162t-70 -149q-23 -41 -50 -79t-50 -79q-23 -37 -65 -37h-72q-4 0 -8 2q-4 0 -7.5 1t-7.5 1q-37 2 -55 5t-23.5 12.5t1 28t22.5 50.5 q25 53 51.5 106.5t53.5 106.5q59 123 72.5 250t-9.5 260q-23 127 -74 237.5t-141 205.5q-12 14 -27 43q-10 23 -4 31z" />
<glyph unicode="+" horiz-adv-x="833" d="M6 608q2 25 10.5 34t34.5 11q31 2 61.5 0t61.5 -2t48.5 2t24.5 9.5t8 25t1 47.5q-2 29 -3 52.5t-3 52.5q0 35 37 34q18 0 36.5 -1t34.5 -3q47 -2 73 -3t37 -12t12 -35.5t-1 -74.5q-2 -4 -1 -7t1 -7q0 -35 2 -51t11.5 -22.5t27 -5.5t51.5 1h86q35 0 35 -35q0 -76 6 -145 q2 -37 -30 -37q-35 -2 -67 -2t-64 -2q-29 0 -35 -6t-8 -35q-2 -25 -2 -56.5v-55.5q0 -49 -37 -39q-35 8 -69 6t-69 -4t-45 10t-12 49q-2 23 -2 53.5v53.5q-2 39 -41 38q-16 -2 -32.5 -2h-32.5q-14 0 -26.5 -2t-25.5 0q-29 2 -45 4.5t-26.5 9.5t-13.5 23.5t-3 50.5 q0 20 -3 39t-3 39z" />
<glyph unicode="," horiz-adv-x="448" d="M16.5 62q-16.5 51 6.5 98q25 47 76 64.5t104 -3.5q29 -10 47 -21.5t28.5 -24.5t14.5 -32.5t4 -48.5q0 -41 -15.5 -82t-41 -76.5t-60.5 -62.5t-71 -37q-6 -2 -13.5 0t-13.5 2q2 6 2 13.5t2 13.5q4 12 11 25.5t12 25.5q8 29 4 38t-31 26q-49 31 -65.5 82z" />
<glyph unicode="-" d="M5 542.5q-1 28.5 9.5 41t36 12.5h74.5h38.5t43 1t27.5 1l22 2h195q23 0 18 -22l-6 -123q-2 -31 -10.5 -41.5t-38.5 -12.5q-41 -4 -80 -4h-80h-172q-35 0 -46 10.5t-22 41.5q-2 4 -2 6t-2 6q-4 53 -5 81.5z" />
<glyph unicode="." horiz-adv-x="468" d="M10 127q-4 33 6 66q16 53 69.5 78.5t113.5 7.5q37 -12 65 -31q86 -57 58 -150q-14 -47 -54.5 -76.5t-95.5 -29.5q-8 2 -21.5 4t-29.5 4q-31 6 -54.5 24.5t-38 44t-18.5 58.5z" />
<glyph unicode="/" horiz-adv-x="661" d="M10 1q-6 7 2 36q23 86 40.5 172t34.5 173t35.5 174t43.5 171q29 100 51.5 199.5t46.5 199.5q4 16 7 25.5t9.5 14.5t15.5 6.5t26 1.5q80 2 159 0q29 0 37 -10.5t2 -39.5q-10 -53 -19 -106t-24 -107q-47 -201 -96 -399.5t-98 -398.5q-4 -20 -10.5 -39t-12.5 -37 q-16 -49 -63 -47q-20 2 -40 2h-40v2q-18 0 -36 -1t-36 -1q-29 2 -35 9z" />
<glyph unicode="0" horiz-adv-x="1130" d="M7 595q-5 150 26 304q14 70 34.5 133.5t69.5 116.5q27 29 53.5 57.5t55.5 50.5q86 66 189.5 72t201.5 -31q133 -47 199.5 -145t85.5 -233q10 -74 15 -147t9 -136q-6 -66 -9 -122t-11 -109q-16 -133 -73.5 -235.5t-168.5 -176.5q-61 -41 -139 -44t-148 11q-76 14 -140 51 t-120 90q-41 39 -62.5 88.5t-31.5 102.5q-31 152 -36 302zM311 616.5q6 -102.5 23 -206.5q4 -27 13 -52.5t26 -48.5q18 -29 48 -43t62.5 -12t62 17.5t46.5 45.5q18 31 32.5 64t14.5 68q0 41 6 80.5t6 80.5v70q0 29 1 60.5t1 54.5q0 47 -16 91t-43 83q-12 18 -31.5 30.5 t-44 17.5t-50.5 1t-48 -23q-45 -35 -63.5 -79t-28.5 -93q-23 -104 -17 -206.5z" />
<glyph unicode="1" horiz-adv-x="978" d="M18 850q-27 33 5 63q23 20 43 39t40 41q74 78 156 143.5t168 133.5q20 16 42 26.5t48 8.5q61 0 119.5 2t120.5 -2q29 -2 35 -8.5t8 -39.5q0 -31 -1 -63.5t-1 -63.5q0 -72 1 -141t1 -139q-4 -215 -6 -387q0 -74 -1 -144.5t-2 -127t-1 -92.5v-40q2 -12 1 -29.5t-6 -21.5 q-10 -8 -19 -7t-21 1q-59 -2 -119 -2h-119q-29 0 -38 10t-11 43q-6 160 -6 322q-2 102 0 202.5t2 202.5v24.5t-2 22.5q-2 12 -9.5 16.5t-17.5 -5.5q-10 -8 -21.5 -16.5t-21.5 -18.5q-35 -29 -70.5 -60.5t-72.5 -60.5q-29 -23 -46.5 -21.5t-41.5 27.5q-35 39 -68 80t-68 82z " />
<glyph unicode="2" horiz-adv-x="1107" d="M6 240q-4 57 39 90q41 33 82 65.5t82 63.5q82 61 151.5 133t126.5 158q23 33 30 68.5t-7 74.5q-23 76 -104 82q-47 4 -87 -10.5t-75 -42.5q-35 -33 -68 0q-37 37 -73.5 72.5t-73.5 72.5q-14 12 -11.5 24.5t13.5 24.5q68 80 153 125q96 53 196.5 72.5t211.5 -4.5 q57 -12 105 -42t83 -69t57.5 -84t30.5 -90q33 -178 -27.5 -317.5t-187.5 -255.5q-31 -29 -62.5 -56.5t-62.5 -56.5q-4 -4 -5 -12.5t-1 -14.5q0 -2 7.5 -5t11.5 -3h295q10 0 19 1t19 1q29 4 33 -24q4 -57 1 -112.5t-1 -111.5q0 -35 -12 -45t-45 -14h-88q-41 0 -92.5 1 t-98.5 2t-78.5 1t-31.5 -2h-375q-29 0 -44 2t-23.5 10t-9.5 24.5t-1 45.5v80t-2 78z" />
<glyph unicode="3" horiz-adv-x="1216" d="M-13 206.5q-7 10.5 3 26.5l123 185q14 23 37 6q27 -18 51 -36.5t49 -37.5q57 -31 113.5 -44t115.5 -15q45 -4 89 17.5t67 62.5q10 20 10 45.5t-8 49t-24.5 43t-37.5 30.5q-25 12 -52 15t-62 1q-16 6 -26.5 14.5t-12.5 28.5q-4 27 -3 53.5t-3 55.5q-6 39 37 59 q20 6 37.5 11t34 10.5t32.5 12.5t39 21q10 6 19.5 24.5t15.5 41t8 44t0 34.5q-4 12 -16.5 29.5t-36 29.5t-57 12t-78.5 -22q-27 -16 -53.5 -42t-49.5 -36q-27 -12 -41 -11t-37 21q-16 16 -30.5 34.5t-30.5 37.5q-25 29 -38 46t-12 31.5t15 30t45 41.5q86 72 180.5 119 t210.5 47q129 -2 215 -62.5t127 -178.5q31 -94 11.5 -182.5t-91.5 -161.5q-14 -16 -14 -26.5t21 -21.5q57 -31 87.5 -81t39 -107t-2 -116.5t-34.5 -106.5q-18 -35 -44 -88.5t-79 -103.5t-144.5 -86t-238.5 -36q-45 0 -97.5 18.5t-99.5 37.5q-72 27 -135 69.5t-127 87.5 q-10 8 -17 18.5z" />
<glyph unicode="4" horiz-adv-x="1214" d="M6 563q-2 39 27 72q150 160 297 320.5t295 322.5q33 37 75 31q57 -4 112.5 -2t113.5 -2q43 0 43 -43q0 -41 2 -80t0 -80q-2 -111 -1 -221.5t-3 -206.5q0 -141 -2 -267t-2 -249q0 -33 2 -62.5t2 -62.5q2 -23 -9.5 -31t-39.5 -6q-55 2 -111.5 0t-112.5 -2q-41 2 -51 10 t-10 49q-2 53 -2 108.5t-2 108.5q-2 35 -11.5 45.5t-44.5 14.5q-119 6 -237.5 5t-233.5 -1q-47 -6 -66.5 9t-23.5 60q-4 41 -4 80t-2 80zM346 610q14 -2 37 -3t42 -2t27 -1h21h119q37 0 37 33q2 106 0 215q0 25 -12.5 30t-28.5 -12q-41 -39 -81 -77.5t-79 -79.5 q-23 -23 -48.5 -45.5t-33.5 -57.5z" />
<glyph unicode="5" horiz-adv-x="1193" d="M-49 160q20 53 40.5 107.5t43.5 107.5q14 33 49 4q53 -47 115.5 -70.5t130.5 -34.5q59 -10 118.5 -6t114.5 35q20 12 40 28.5t34 37.5q18 27 22.5 58.5t-4 62t-28 56t-49.5 42.5q-23 12 -49.5 21t-53.5 9q-55 0 -110.5 -3t-108.5 -31q-18 -14 -41 0q-49 33 -76.5 57.5 t-37 51t-3.5 62.5t23 95q31 104 59.5 207.5t57.5 208.5q6 25 16 37t39 10q23 -2 54.5 -2h60.5h69q80 2 159 2h159q35 0 41 -6.5t12 -38.5q8 -41 16 -83t17 -83q2 -10 1 -18.5t-1 -18.5q-2 -31 -12.5 -39t-41.5 -8q-66 4 -133 5t-135 -1q-37 0 -48 -11.5t-17 -45.5 q-4 -23 -12.5 -48.5t1.5 -42.5q6 -10 16.5 -11t21.5 2t23.5 6t24.5 3q86 -4 163 -28.5t145 -77.5q39 -29 61.5 -70t38.5 -86q20 -53 20 -127.5t-17 -149.5t-52 -142.5t-84 -108.5q-43 -35 -91 -56.5t-102 -37.5q-135 -37 -267 -31t-265 47q-37 12 -72 34.5t-70 45.5 q-43 27 -26 74z" />
<glyph unicode="6" horiz-adv-x="1239" d="M16 588q0 154 37 265.5t92.5 190t123 129t127 79t104.5 40t57 15.5q33 8 90.5 8t113.5 -4t99 -11.5t49 -15.5t12.5 -40t10.5 -69.5t8 -74.5t6 -56q2 -23 -4 -28.5t-29 -1.5q-16 2 -50 7t-77 8t-90 1t-86 -16q-25 -8 -57.5 -30.5t-64 -54.5t-59.5 -72t-40 -85 q-2 -6 -2 -16.5t4 -12.5q4 -4 14.5 -1t14.5 8q43 35 91 50t101 23q70 12 134.5 -2t127.5 -45q37 -18 67 -55t52.5 -86t34.5 -108.5t12 -120.5q0 -125 -54 -213.5t-187 -167.5q-96 -49 -189.5 -56.5t-179.5 17t-160.5 75t-130.5 115.5q-37 43 -60.5 99.5t-36.5 113.5 t-19.5 109.5t-6.5 89.5zM447.5 366.5q9.5 -28.5 50.5 -44.5q23 -8 46.5 -11.5t39.5 -7.5q14 0 21 -1t11 -1q53 0 87 34t34 89q-2 106 -119 106q-68 -4 -108 -47q-12 -14 -23.5 -26.5t-21.5 -26.5q-27 -35 -17.5 -63.5z" />
<glyph unicode="7" horiz-adv-x="1173" d="M10 1260q-2 41 43 45h41q45 0 108.5 -1t121 -1t77.5 1l60 1q80 0 159.5 -1t159.5 -4q35 -2 73 1.5t73 -1.5q25 -2 37 -15t14 -36q4 -33 1 -69.5t-1 -69.5q2 -8 -3 -17.5t-9 -17.5q-72 -111 -126.5 -227.5t-107.5 -235.5q-66 -141 -131 -281.5t-131 -281.5 q-10 -20 -24.5 -34.5t-41.5 -14.5h-286q-35 0 -21 31q12 25 25.5 49t25.5 49q94 199 187.5 392.5t187.5 391.5q25 51 19 61.5t-66 10.5h-205.5t-206.5 -2q-23 0 -35 7t-14 30q-4 59 -3 119.5t-1 120.5z" />
<glyph unicode="8" horiz-adv-x="1107" d="M1 359.5q-17 113.5 56 236.5q53 96 144 166q18 14 23 27.5t-9 35.5q-18 29 -24.5 63t-12.5 68q-12 72 6.5 133.5t55.5 118.5q43 63 111.5 96t150.5 33q84 0 152.5 -27.5t123.5 -92.5q33 -41 48.5 -92.5t15.5 -105.5t-12.5 -103.5t-36.5 -86.5q-18 -27 -16.5 -34t24.5 -29 q88 -80 126 -179.5t34 -215.5q-4 -80 -46.5 -153t-104.5 -130t-139 -91t-151 -36q-125 4 -239.5 57.5t-188.5 140.5t-91 200.5zM365 383q4 -27 23.5 -50.5t45 -41t55 -23.5t56.5 0q16 4 32.5 16.5t28.5 28t19.5 33t7.5 35.5q0 23 -9.5 49.5t-23.5 51t-32.5 45t-39.5 30.5 q-14 10 -34 2q-41 -20 -74 -48t-49 -71q-12 -27 -6 -57zM444 1026q-4 -47 8.5 -87t51.5 -69q4 -4 12 -4t12 4q25 29 40.5 63t11.5 75q-6 65 -72 61q-29 -2 -45.5 -12t-18.5 -31z" />
<glyph unicode="9" horiz-adv-x="1236" d="M18 197q29 47 55.5 96t55.5 96q10 16 19.5 20.5t29.5 -6.5q82 -49 170 -88q59 -29 119.5 -22.5t120.5 29.5q68 27 98.5 80t36.5 126q2 14 -6 18.5t-19 -3.5q-10 -4 -17 -10.5t-17 -10.5q-211 -123 -406 35q-41 33 -74.5 67.5t-58.5 80.5q-27 45 -38 101t-6 112.5 t24.5 109.5t52.5 94q45 55 106.5 107.5t126.5 75.5q25 12 73 16t103.5 1t109.5 -14.5t95 -31.5q106 -51 157.5 -140t76.5 -194q16 -61 19 -125t9 -127q-4 -90 -15 -176t-42 -170q-78 -207 -270 -301q-297 -145 -586 31q-23 14 -47.5 28.5t-46.5 30.5q-31 25 -9 64z M408.5 887.5q-7.5 -33.5 19.5 -68.5q23 -29 67 -44t83 -5q75 19 81 113q2 37 -11 67.5t-34.5 50t-51.5 26.5t-62 -1q-29 -8 -51.5 -25.5t-26.5 -46.5q-6 -33 -13.5 -66.5z" />
<glyph unicode=":" horiz-adv-x="428" d="M9 748.5q7 31.5 28 60.5q27 39 74 58.5t90 4.5q49 -14 81.5 -55t32.5 -90q-10 -78 -77 -119q-27 -16 -62 -17t-66.5 10t-58 32.5t-37.5 50.5q-12 33 -5 64.5zM10 150q2 29 13.5 54t31 43.5t44 29t51.5 8.5q150 -10 143 -152q-2 -59 -42 -98t-97 -35q-74 4 -111 42 t-33 108z" />
<glyph unicode=";" horiz-adv-x="489" d="M10 725q0 31 13.5 60.5t36 53t52 37t60.5 13.5q74 0 123 -46t49 -112q-2 -68 -47 -111.5t-111 -41.5q-35 0 -65.5 12t-55 32.5t-40 47t-15.5 55.5zM12 83.5q-6 33.5 3.5 66t31 59.5t51.5 37q41 14 79 13t77 -11q39 -8 49 -49q8 -23 13.5 -48.5t9.5 -50.5 q0 -33 -9.5 -60.5t-25.5 -55.5q-31 -59 -80 -92t-109 -56q-10 -4 -19 1t-20 7q4 8 7.5 15.5t7.5 15.5q6 10 14 19.5t14 21.5q14 25 9.5 38t-27.5 32q-12 10 -23.5 18t-21.5 19q-25 27 -31 60.5z" />
<glyph unicode="&#x3c;" horiz-adv-x="935" d="M8 463q2 31 4 61.5t0 61.5q-2 41 37 55q102 45 201.5 89t204.5 87q76 31 150.5 60.5t150.5 60.5q29 12 39 6t10 -35v-26.5t-1 -30.5t-2 -20l-1 -17q-2 -29 -3 -54.5t-5 -53.5l-111 -50q-80 -35 -161 -66.5t-161 -64.5q-8 -4 -14 -10t-14 -10q6 -6 11 -12.5t13 -10.5 q102 -61 208 -116.5t216 -102.5q51 -23 45 -78q-4 -39 -4 -75.5t-2 -75.5q-4 -35 -35 -23q-23 10 -43 20.5t-43 20.5q-102 51 -202.5 101.5t-204.5 103.5q-59 31 -117.5 62.5t-118.5 62.5q-51 23 -47 80z" />
<glyph unicode="=" horiz-adv-x="811" d="M12 801q0 23 8.5 30t30.5 9h36h80h106.5h113.5h103.5h74.5q39 0 41 -37q4 -25 9.5 -50.5t9.5 -50.5q6 -53 -45 -61q-8 -2 -43 -3t-85.5 -2t-108.5 -2t-113.5 -2t-101.5 -1h-69q-37 0 -41 41q-2 33 -4 64.5t-2 64.5zM13 399.5q1 26.5 1 55.5q-2 27 5.5 34t35.5 9h260h246 q27 0 31 -4.5t2 -30.5q0 -35 1 -66.5t1 -64.5q-2 -29 -10 -37t-37 -10h-23l-448 6q-39 0 -48.5 8t-13.5 47q-4 27 -3 53.5z" />
<glyph unicode="&#x3e;" horiz-adv-x="968" d="M10 907q0 31 37 21q55 -20 111.5 -40t113.5 -42q92 -35 181.5 -71t181.5 -70q33 -14 63.5 -27.5t63.5 -26.5q20 -8 25.5 -21.5t5.5 -29.5q2 -37 1 -72.5t3 -70.5q2 -31 -8.5 -50.5t-38.5 -29.5q-37 -16 -73 -32.5t-73 -33.5q-117 -53 -229.5 -107t-229.5 -108 q-14 -6 -26.5 -12t-24.5 -12q-35 -16 -49 -8t-20 45q-4 33 -6.5 65.5t-6.5 69.5q-10 31 6.5 48t44.5 30q78 35 158 70.5t158 70.5q14 6 27.5 11t25.5 13q6 4 9 9.5t8 9.5q-10 10 -17 12q-53 23 -115 43q-78 23 -147.5 62t-140.5 73q-4 4 -9.5 12.5t-5.5 16.5q-2 47 -2 91 t-2 91z" />
<glyph unicode="?" horiz-adv-x="1130" d="M5 967.5q1 11.5 9 27.5q66 129 168.5 209t247.5 107q80 14 157 8t154 -29q86 -25 139.5 -85t82.5 -142q33 -90 21.5 -175t-50.5 -167q-12 -27 -36 -47.5t-46 -36.5q-23 -16 -47.5 -28.5t-46.5 -26.5q-47 -27 -80 -64t-43 -90q-6 -29 -21.5 -38t-38.5 -9q-14 0 -30.5 -1 t-32.5 -1q-19 -2 -39 -2q-29 0 -55.5 -1t-55.5 1t-40 14t-11 41q0 63 20.5 118.5t71.5 96.5q37 31 76 55.5t86 40.5q43 14 61.5 46t26.5 73q12 74 -49 117q-16 12 -26 14q-35 8 -78 6t-83 -15t-73 -37.5t-47 -59.5q-6 -12 -10 -25.5t-27 -17.5q-23 -6 -41 -7t-41 13 q-37 27 -74.5 49.5t-76.5 44.5q-23 12 -22 23.5zM313 147q8 68 63.5 109t129.5 35q63 -4 103 -54t38 -122q0 -29 -4 -46.5t-14.5 -29.5t-26.5 -22.5t-43 -20.5q-63 -23 -130 -4.5t-99 74.5q-23 41 -17 81z" />
<glyph unicode="@" horiz-adv-x="1429" d="M25 360q2 123 52 223.5t136 186.5q74 72 162 118t194 58q14 2 28.5 2t29.5 4q78 12 162.5 -4t161.5 -49t136.5 -74t83.5 -75q61 -88 78 -177.5t2.5 -169t-51.5 -145t-80 -104.5q-68 -61 -149.5 -68.5t-153.5 47.5q-20 16 -36.5 19.5t-41.5 -5.5q-55 -23 -112.5 -20.5 t-110.5 31.5q-16 10 -33.5 22.5t-25.5 28.5q-18 45 -29.5 92t2.5 98q2 6 3 13.5t5 13.5q57 190 269 213q45 6 82.5 -3t76.5 -30q47 -27 39 -76q-10 -47 -1 -91t20 -87q4 -10 6 -18t6 -17q10 -16 24.5 -21t30.5 5t31.5 24.5t24.5 30.5q10 23 15 48.5t1 50.5 q-16 129 -91 208.5t-212 90.5q-276 25 -432 -209q-14 -23 -23.5 -48.5t-17.5 -52.5q-23 -98 -0.5 -186t88.5 -166q45 -53 104.5 -80.5t130.5 -17.5q43 4 63.5 5t31 -8t17.5 -28.5t19 -54.5q8 -25 13 -49q4 -29 -6.5 -45.5t-38.5 -26.5q-205 -72 -394 51q-84 53 -142 125 t-101 158q-10 18 -18.5 48t-14.5 63.5t-10 67t-4 60.5z" />
<glyph unicode="A" horiz-adv-x="1449" d="M8 53q20 63 41 123t43 121q43 137 86 273.5t88 273.5q14 47 35 114.5t40 131t33.5 108.5t16.5 49q6 20 9 32.5t10.5 19t23 8.5t43.5 2q25 0 83 -1t123 -1h124h86q37 2 48 -6.5t20 -43.5q16 -68 29.5 -131t29.5 -131q35 -147 69.5 -290.5t69.5 -288.5q16 -66 31.5 -132.5 t32.5 -131.5q6 -27 12 -52.5t12 -50.5q3 -10 3 -18q0 -31 -36 -37h-14q-42 -2 -84 -2q-32 0 -63.5 1t-62.5 1q-42 0 -83 -2q-31 0 -38 10t-11 45q-6 90 -33 180q-4 20 -17 22.5t-24 2.5q-37 1 -74 1q-38 0 -74 -1q-74 -2 -144 -4q-16 0 -24.5 -8.5t-12.5 -22.5 q-12 -47 -25.5 -88t-26.5 -88q-6 -23 -15 -32t-38 -9h-63h-102.5t-97.5 1t-46 1q-37 3 -37 30q0 9 4 21zM561 517q-4 -15 1 -21.5t20.5 -6.5h44.5l13 1q13 2 30.5 3t37 2t31.5 3q33 2 25 34q-16 72 -33.5 146t-34.5 145q-2 6 -6 13.5t-12 7.5t-9 -6.5t-3 -10.5 q-23 -66 -45.5 -132t-45.5 -132q-10 -31 -14 -46z" />
<glyph unicode="B" horiz-adv-x="1302" d="M6 78v579l1 63q1 64 1 154.5t-1 189.5t-1 173q0 29 10.5 43t38.5 20q16 2 32.5 2.5t33.5 0.5q38 -2 76.5 -2t76.5 2q28 1 55 1l153 -5q104 -6 208 -17q63 -8 111.5 -36.5t87.5 -76.5q12 -14 21.5 -39.5t17.5 -52t13 -47t5 -22.5q2 -16 1 -32q-1 -54 -21 -100 q-28 -60 -74 -112q-18 -20 -16 -25.5t28 -17.5q29 -14 56.5 -27.5t52.5 -31.5q94 -74 98 -197v-6q0 -178 -110 -328q-16 -23 -42 -40t-51 -34q-37 -25 -78.5 -37t-87.5 -16q-35 -2 -90 -3t-119.5 -1h-132t-126 1t-101.5 2t-59 1q-41 2 -54.5 17.5t-13.5 56.5zM344 498 q0 -12 1 -42t2 -63t2 -62.5t1 -43.5q0 -37 35 -35q25 2 49.5 1t46.5 3q41 8 80 21.5t72 44.5q41 41 41 86q0 7 -1 13q-7 52 -67 81q-54 23 -112 30q-46 5 -91 5h-26q-33 0 -33 -39zM348 868q0 -39 33 -37q35 2 69.5 3.5t69.5 5.5q31 6 57.5 21.5t32.5 51.5q3 16 3 31 q0 54 -46 86q-67 49 -150 49h-7q-41 0 -49.5 -8t-10.5 -49v-26.5t-1 -45t-1 -47.5v-35z" />
<glyph unicode="C" horiz-adv-x="1406" d="M-35 590q0 131 33 246.5t96 222.5q29 47 67 83t85 64q114 70 234 100q86 22 179 22q37 0 74 -3q80 -8 154 -38t145 -60q30 -12 30 -34q0 -16 -15 -36q-41 -51 -83 -100t-85 -101q-14 -16 -31 -19t-39 1q-43 8 -87 10h-22q-32 0 -63 -4q-61 -6 -109.5 -32.5t-81.5 -67.5 q-34 -40 -50 -94q-13 -43 -14 -90q0 -11 1 -23q4 -35 8 -71t15 -68q18 -57 56 -93t101 -45q41 -6 82 -10q12 -1 23 -1l59 7q57 14 94 42t78 81q18 37 45 37q15 0 33 -12q53 -35 104.5 -70t102.5 -74q31 -23 22.5 -42t-30.5 -54q-12 -16 -53.5 -54t-96.5 -78t-116.5 -76 t-114.5 -50q-67 -18 -135 -22q-22 -1 -46 -1q-46 0 -94 5q-92 12 -175 46t-155 93q-12 10 -33.5 29.5t-45 45t-47 56.5t-37.5 66t-25.5 67.5t-21.5 67.5q-8 35 -9.5 68.5t-5.5 62.5z" />
<glyph unicode="D" horiz-adv-x="1452" d="M4 70q0 145 1 289.5t1 289.5l1 57q1 58 1 141v174v159q0 43 2 66.5t13.5 34.5t34 14t65.5 5q23 0 90.5 1.5t147 1.5t155.5 -2.5t117 -6.5q49 -4 98 -9t96 -21q43 -14 85 -37t79 -51q61 -41 107.5 -110t78 -140.5t50 -135t24.5 -96.5q10 -55 10 -107q0 -86 -28 -161 q-45 -121 -146 -225q-70 -72 -151.5 -117t-181.5 -59q-129 -17 -255 -25q-82 -5 -166 -5q-45 0 -89 1q-53 0 -103.5 4t-101.5 4q-23 -2 -28 8.5t-5 26.5q0 8 -1 15t-1 16zM410 375q0 -41 41 -43q25 -2 49 -2q62 0 118 14q80 20 152 74q35 27 61.5 57.5t36.5 73.5 q10 42 10 84q0 15 -1 31q-5 58 -23 114q-16 43 -45 77t-74 52q-66 29 -132 33t-134 4q-41 0 -48 -8t-7 -49q-1 -21 -1 -46v-26q1 -41 1 -80v-90q0 -68 -1 -135.5t-3 -134.5z" />
<glyph unicode="E" horiz-adv-x="1193" d="M6 1237q0 35 8.5 51.5t55.5 14.5q53 -2 134 -2.5t170 -0.5h181t169 1.5t132 1.5h74q41 0 43 -39q2 -53 2 -117v-117q0 -6 -9.5 -14t-15.5 -8q-29 -4 -56.5 -7.5t-55.5 -3.5q-100 -2 -194.5 -2t-194.5 -2q-35 0 -54.5 -2t-28 -11t-8.5 -28.5t2 -56.5q0 -20 -1 -26.5 t1 -24.5q2 -25 4.5 -39t8.5 -21.5t20.5 -9.5t40.5 -4q20 -4 56 -2t59 0q25 -2 36 -7t15 -15.5t3 -27t-1 -40.5q0 -8 -1 -15.5t1 -15.5q0 -37 -37 -37q-30 -2 -60.5 -2t-60.5 2q-33 0 -51 -1t-25.5 -9t-8.5 -25.5t-1 -48.5v-151q2 -43 43 -43h498q37 4 51.5 -5.5t16.5 -45.5 q4 -57 5 -127v-45q0 -44 -1 -82q0 -8 -9.5 -17.5t-17.5 -11.5q-12 -2 -56 -2h-106.5t-136.5 1t-145.5 2t-135 1h-102.5q-24 -1 -48 -1t-48 1q-49 2 -96 4q-39 2 -50.5 13.5t-11.5 50.5v135t2 135q0 47 1 91t3 91q-2 0 -1 40t2 96.5t2 119t1 107.5q0 78 -3 154.5t-7 154.5 q0 10 -1 21.5t-1 23.5z" />
<glyph unicode="F" horiz-adv-x="1300" d="M8 802.5q0 106.5 1 204t5 144.5q4 31 3 52.5t3 53.5q2 37 10.5 44.5t47.5 9.5h33q33 -2 95 -2h139h161h160.5t139 -1t95.5 -1q41 -2 83 -3t85 -1q23 0 28 -10.5t5 -28.5q2 -57 2 -114.5t2 -113.5q0 -39 -8 -50t-49 -11h-148t-147 2q-53 0 -104.5 1t-104.5 1q-20 0 -40 1 t-40 -1q-43 -4 -52.5 -14.5t-11.5 -51.5q-2 -39 -3 -69.5t-3 -69.5q0 -47 8.5 -58t57.5 -16q39 -4 79 -4q20 0 40 1q26 1 52 1q34 0 68 -2q23 -2 47.5 -1t47.5 -1q37 -4 54 -4t23.5 -7t6.5 -23.5t4 -49.5q4 -41 4 -84t-2 -84q0 -27 -8.5 -34t-34.5 -7q-92 -2 -184.5 -2 t-184.5 -2q-8 0 -15 1t-16 1q-37 0 -44 -6t-7 -41q-2 -55 -2 -124.5t-2 -125.5q0 -41 -3 -62.5t-13.5 -30.5t-31 -10t-58.5 -1q-51 2 -100.5 3t-100.5 3q-41 4 -51.5 13.5t-12.5 45.5q-2 102 -2 204t-2 204q0 39 -2 132t-2 199.5z" />
<glyph unicode="G" horiz-adv-x="1470" d="M-28 722q26 169 122 329q55 92 141.5 149t190.5 88q110 34 218 34h6q112 -1 224 -24q53 -10 98.5 -34.5t92.5 -46.5q16 -8 16 -20.5t-12 -22.5q-53 -47 -103.5 -93.5t-103.5 -93.5q-8 -6 -21.5 -10t-17.5 0q-35 25 -73 25h-12q-44 -5 -87 -9q-35 -4 -68.5 -12t-64.5 -23 q-59 -29 -105 -85t-67 -127q-14 -48 -14 -101q0 -23 3 -47q9 -78 60 -152q47 -68 116 -96q51 -21 110 -21q21 0 43 3q39 4 75.5 14t67.5 37q14 10 26.5 22.5t22.5 26.5q10 16 20.5 38t6.5 38q-2 10 -9.5 14t-17.5 4t-21.5 -1t-19.5 1q-14 2 -26.5 2t-26.5 2 q-45 4 -57.5 17.5t-14.5 58.5q-2 27 -2 51.5t-4 49.5q-2 41 33 41q47 0 96 -1.5t96 -1.5q16 -2 32 -3t32 -1h118.5t118.5 -2q35 -2 42.5 -8t13.5 -39q5 -31 5 -61q0 -34 -7 -67q-11 -62 -31 -122q-25 -76 -68 -139t-96 -121q-66 -72 -145.5 -119t-178.5 -63 q-82 -13 -162 -13q-20 0 -39 1q-100 4 -198 49q-53 23 -100 45t-92 59q-27 23 -45.5 49.5t-40.5 55.5q-14 29 -32 60.5t-28 64.5q-44 128 -44 250q0 51 8 101z" />
<glyph unicode="H" horiz-adv-x="1320" d="M10 147v253t2 253l1 45t2 108.5t2 133.5t1 121q0 45 -1 100.5t-1 100.5q0 25 8.5 34t30.5 9h129.5t126.5 -2q61 -2 68 -66q2 -23 1 -52.5t-1 -51.5q-2 -61 -3 -124t-1 -124q0 -16 1 -33.5t5 -34.5q4 -10 14.5 -18t16.5 -8h30h217q37 0 57.5 1t31 10t13.5 28.5t3 56.5 q3 67 3 137v35q-1 88 -1 172q0 12 -1 23.5t3 21.5q2 31 37 31q50 -3 100 -3h25h21q53 0 108 -4q29 -2 33 -8t4 -39q0 -53 1 -115.5t1 -115.5q-2 -49 -3 -97t-1 -98q-1 -38 -1 -76v-37q1 -56 1 -114q2 -123 2 -241.5v-241.5q0 -14 1 -26.5t-1 -27.5q-4 -35 -18.5 -48 t-49.5 -13q-39 -1 -78 -1h-38.5h-38.5q-39 0 -78 -1q-33 0 -33 33q0 27 1 52.5t-1 51.5q-2 72 -3 140.5t-5 140.5q-2 20 -4 32.5t-8.5 17.5t-18.5 7t-33 2q-66 2 -129 4q-21 1 -42 1q-42 0 -85 -3q-20 -4 -31.5 -5t-17.5 -7t-8 -17.5t-2 -33.5q-2 -80 -2 -165v-165 q0 -43 -15.5 -61.5t-60.5 -24.5q-2 -2 -6 -2q-59 0 -116.5 1t-117.5 1q-23 0 -32 11.5t-11 31.5q-2 27 -3 52.5t-1 51.5z" />
<glyph unicode="I" d="M10 1155q0 25 1 49.5t3 48.5q4 29 11.5 36t33.5 11q73 8 143 8h9q74 0 149 -12q23 -2 37.5 -4t16.5 -24q4 -20 3 -51t-1 -52q-2 -135 -4 -304t-6 -353v-463q0 -33 -9.5 -40t-44.5 -3q-42 5 -83 5q-26 0 -52 -2q-48 -4 -99 -4q-21 0 -42 1q-9 -1 -16 -1q-47 0 -48 54 q-1 25 -1 48v22q1 33 1 72q2 92 2 184v184q0 139 -1 295t-3 295z" />
<glyph unicode="J" horiz-adv-x="1302" d="M2 600q-2 20 0 33.5t8 22t18.5 13.5t32.5 9h32h73t88 -1t78 -1q35 0 35 -39q-2 -27 -2 -53.5t4 -53.5q10 -80 59 -116q37 -28 92 -28q19 0 39 3q74 12 110 44t52 108q18 98 18 196q0 121 -3 229.5t-5 231.5q-2 35 0 55.5t11.5 30.5t27.5 14.5t53 4.5q46 2 93.5 2t95.5 -2 q51 -2 64.5 -17.5t17.5 -71.5v-70v-119t-2 -147.5t-4.5 -152.5t-5.5 -136t-9 -97q-16 -106 -56 -202.5t-110 -180.5q-39 -47 -87 -77t-109 -42q-41 -8 -79 -14q-28 -4 -57 -4q-11 0 -22 1q-12 0 -62.5 3.5t-116 20.5t-136 56t-123.5 113q-27 43 -45.5 91t-30.5 97 q-14 59 -21.5 122t-15.5 124z" />
<glyph unicode="K" horiz-adv-x="1343" d="M4 233.5v161.5q0 68 1 135.5t1 135.5q-2 0 -2 63.5v154.5t1 191t1 172q0 41 11.5 50.5t52.5 11.5h90t90 -2q54 -2 72 -26q17 -22 16 -69v-10q-2 -43 -2 -87q0 -33 1 -65q3 -76 3 -151q0 -14 8 -18t21 4q66 57 130 113.5t130 115.5q37 33 78 80t77 82q23 23 47.5 29 t55.5 4q113 -6 227 -6q16 0 33.5 -2.5t23.5 -20.5q3 -10 3 -20q0 -27 -25 -48q-41 -35 -84 -84t-84 -86q-66 -57 -128 -115.5t-128 -115.5q-16 -14 -24.5 -22.5t-9.5 -15.5t3 -17.5t15 -26.5q59 -102 118.5 -202.5t118.5 -200.5q41 -66 81 -128.5t81 -125.5q8 -12 14 -22.5 t-4 -24.5q-14 -27 -51 -27q-18 2 -57 1t-81 -1t-80 1t-54 7t-28.5 21.5t-23 35t-19.5 39t-17 33.5q-57 92 -110.5 185.5t-107.5 187.5l-24 37q-16 27 -37 8q-18 -16 -35.5 -33.5t-36.5 -34.5q-16 -14 -18 -32.5t-2 -36.5q0 -80 1 -159t1 -159v-53q-4 -41 -43 -41 q-30 2 -59 2t-57.5 -2t-58 -2t-59.5 2q-33 4 -44 18.5t-11 49.5q-2 78 -2 161.5z" />
<glyph unicode="L" horiz-adv-x="1067" d="M6 1262q0 37 33 38q52 4 100 4h11q10 0 22 -1q43 0 90 2h11q39 -1 51 -13q14 -14 16 -61q6 -145 7.5 -302t6.5 -302q1 -24 1 -48q0 -35 -2 -69q-1 -24 -1 -48q0 -33 2 -67q2 -39 10.5 -47t49.5 -8q72 -4 143.5 -4h142.5h96.5t42 -12.5t12.5 -41t5 -85.5q4 -41 5 -79 l5 -82q0 -38 -43 -38q-47 2 -96 3t-98 1h-254t-252 2h-23.5t-21.5 2q-41 4 -55.5 19.5t-14.5 58.5q0 86 1 173t1 173v43v113q0 68 1 158q0 45 0.5 90.5t-0.5 92.5q-1 93 -2 180t-3 155z" />
<glyph unicode="M" horiz-adv-x="2007" d="M6 1249q-2 35 6 43t41 11h54h81h83h59q33 4 52 -8.5t36 -41.5q59 -115 121.5 -226.5t124.5 -223.5l147 -271q16 -29 26.5 -27.5t26.5 30.5q29 47 55.5 92t55.5 92q41 70 85 136.5t85 137.5q37 63 70.5 126t66.5 128q16 29 35.5 46.5t54.5 13.5q12 -2 52 -2h84t81 1t41 1 q35 0 53.5 -2t27.5 -11.5t10 -29t1 -56.5q0 -203 2 -403.5t7 -403.5q1 -60 1 -117v-56v-33q0 -67 3 -138q2 -47 -5.5 -55t-52.5 -6q-18 0 -56 1t-79 1h-78h-51q-29 -2 -38 6t-9 39q-2 141 -3 278.5t-3 278.5q0 16 -2 23q0 10 -8 18q-4 4 -7.5 0t-5.5 -6q-10 -14 -18 -26.5 t-16 -26.5q-78 -133 -157 -269.5t-157 -271.5q-10 -16 -22.5 -28.5t-40.5 -12.5h-178q-45 0 -59.5 17.5t-31.5 52.5q-57 123 -116.5 241.5t-120.5 239.5q-8 16 -17.5 32.5t-19.5 32.5q-2 4 -7 7t-5 -11t-1 -17t1 -11q6 -135 12 -268.5t12 -268.5q2 -29 -4 -35t-39 -10 q-35 -4 -67.5 -4h-65.5h-92t-90 2q-31 0 -25 31q-1 78 -1 155v78q1 116 1 232q-6 377 -6 753z" />
<glyph unicode="N" horiz-adv-x="1536" d="M6 627q-1 37 -1 74t1 73q2 74 2 148l-1 36q-1 35 -1 84.5t1 101.5t1 87v45q4 35 35 29q39 1 75 1q38 0 72 -1q23 -1 46 -1q46 0 94 3q27 2 40 -7.5t27 -27.5q55 -80 110.5 -170t114 -179t119 -176.5t123.5 -160.5q14 -16 35 -38t29 -22t10 31t2 53q-2 68 -3 148t-3 160.5 t-3 160.5t-3 148q-2 45 7 57t52 14q59 4 117 6l64 2q26 0 53 -1q53 0 65 -13.5t12 -64.5q0 -43 -1 -98.5t-2 -113t-2 -112.5t-1 -98q4 -113 7.5 -225.5t7.5 -227.5q4 -78 4 -154.5t2 -154.5q0 -27 -6.5 -34t-32.5 -7h-173t-175 4q-12 0 -26.5 7t-25.5 18q-59 55 -102 110 q-23 27 -55.5 72t-68.5 99.5t-73.5 112.5t-70.5 107.5t-56.5 85t-31.5 48.5q-2 4 -8.5 4t-10.5 2q-2 -2 -2 -4q-2 -2 -2 -11v-95t2 -95q2 -98 4 -196.5t7 -196.5q0 -48 -14 -62q-13 -13 -51 -12h-11q-33 2 -65 4t-64 2q-16 -1 -35.5 -1t-41.5 1h-21q-31 0 -58 -4 q-27 -6 -33 21q-4 16 -2 26t2 27q-4 104 -4 207v69q1 46 1 91q0 92 -3 184z" />
<glyph unicode="O" horiz-adv-x="1490" d="M-24 630q-2 18 -1 38q0 37 7 75q20 100 68 196.5t123 174.5t177.5 132t229.5 69q34 4 67 4q41 -1 83 -7q74 -12 147 -38q123 -47 206.5 -132t137.5 -206q29 -66 53 -129q21 -54 21 -118q0 -11 -1 -21q-10 -94 -30.5 -182.5t-60.5 -167t-100.5 -145.5t-146.5 -116 q-68 -39 -139.5 -59.5t-148.5 -20.5q-127 0 -226.5 32t-174 82t-127 112.5t-86.5 123t-50 111.5t-18 82q-4 54 -10 110zM328 616v-7q0 -33 18 -74q20 -46 59 -87.5t97.5 -71.5t132.5 -30q82 0 141.5 34t99 83t59 106.5t19.5 106.5q0 25 -1 38t-3 21t-4 15.5t-4 19.5 q-6 31 -33.5 66.5t-67.5 67.5t-88 53.5t-94 21.5q-92 0 -154.5 -37t-100 -91t-56 -117.5t-20.5 -117.5z" />
<glyph unicode="P" horiz-adv-x="1300" d="M12 678l1 44t2 106.5t3.5 132t4.5 118.5q1 16 1 31q0 20 -2 40q-2 36 -2 73q2 43 16.5 59t57.5 21q35 4 68 4h65q111 -2 221.5 -2t221.5 -5q115 -6 215 -43q29 -10 72.5 -43.5t83.5 -86t69 -119t29 -140.5q0 -115 -39 -194.5t-100.5 -136t-136.5 -92t-146 -58.5 q-91 -28 -187 -28q-31 0 -63 3q-43 4 -51 -8t-8 -59q-1 -41 -1 -78v-35q1 -52 5 -112q2 -43 -12.5 -61.5t-57.5 -16.5q-63 0 -133 -3q-30 -1 -59 -1q-38 0 -74 2q-29 2 -38 13t-13 42q-3 37 -3 74q0 19 1 37q1 28 1 55t-1 55q-4 104 -5.5 205.5t-5.5 206.5zM406 1004 q0 -55 1 -131t3 -132q2 -29 10 -39t35 -8q20 2 70 4t102.5 18.5t91.5 51.5t39 102q0 53 -21.5 89t-53.5 58.5t-70 33t-70.5 13.5t-55 2t-26.5 -1q-41 -4 -49.5 -12.5t-5.5 -48.5z" />
<glyph unicode="Q" horiz-adv-x="1622" d="M10 688q0 45 13.5 98.5t38 107.5t59.5 106.5t78 95.5q102 102 225 156.5t260 70.5q32 4 64 4q59 0 117 -15q89 -22 169 -73q135 -82 209 -199.5t105 -271.5q11 -58 11 -113q0 -58 -12 -113q-24 -106 -77 -210q-16 -35 -24.5 -53.5t-7.5 -34t14.5 -32.5t39.5 -46 q25 -29 49.5 -56.5t49.5 -54.5q27 -27 0 -43q-57 -41 -112.5 -78.5t-113.5 -76.5q-25 -16 -47 10q-29 35 -56.5 68.5t-55.5 70.5q-18 25 -44 25q-10 0 -22 -4q-33 -12 -65.5 -22.5t-67.5 -16.5q-44 -8 -88 -8q-40 0 -80 7q-82 15 -162 44q-33 10 -64.5 24.5t-62.5 30.5 q-96 47 -171 115.5t-113 171.5q-14 37 -24.5 81t-18 87t-10.5 82t-3 65zM379 653q0 -53 11 -80.5t26 -62.5q41 -94 127 -132q74 -33 162 -33q14 0 28 1q88 4 145.5 50t86.5 128q24 72 24 145q0 13 -1 27q-5 86 -54 156q-45 61 -100.5 89t-105.5 36q-36 6 -65 6q-11 0 -21 -1 q-36 -3 -42 -3q-41 -10 -79 -35.5t-60 -62.5q-33 -51 -57.5 -112.5t-24.5 -115.5z" />
<glyph unicode="R" horiz-adv-x="1343" d="M12 104q2 82 2 164t4 164q2 78 2 152.5v152.5q1 62 1 124.5t-1 124.5q-2 124 -2 249q0 45 12.5 56.5t59.5 8.5h172l24 2q23 1 58 3q36 2 72 3h23q23 0 42 -1q111 -4 220.5 -12.5t216.5 -51.5q53 -23 96 -54.5t73 -78.5q47 -70 65 -146q14 -58 14 -115q0 -18 -1 -37 q-6 -75 -32.5 -143.5t-69.5 -123.5q-20 -25 -50 -44.5t-59 -37.5q-16 -10 -19 -20.5t7 -26.5q35 -59 71 -117.5t72 -118.5q14 -23 35 -61.5t37 -61.5q14 -25 4 -49q-6 -16 -17 -18t-26 -2q-44 3 -87 3q-21 0 -42 -1q-63 -2 -129 -2q-23 0 -33 8t-20 24q-39 72 -85 161 t-87 161q-8 14 -16.5 26.5t-16.5 24.5q-16 31 -55 31q-23 0 -42.5 3t-41.5 3q-33 2 -44 -7t-11 -44l4 -160l4 -160q2 -29 -6.5 -41t-34.5 -18q-10 -4 -22.5 -4h-22.5q-53 0 -103.5 -1t-103.5 -1q-16 0 -30.5 1t-31.5 3q-35 4 -41 39q-2 16 -5 33.5t-3 33.5zM410 707 q0 -35 36 -35q41 4 81 5t81 5q41 6 79 22.5t69 49.5q23 26 30 60q3 17 3 33q1 19 -3 35q-8 34 -28.5 59.5t-50.5 33.5q-119 30 -234 30q-20 0 -39 -1q-6 -2 -13 -11.5t-7 -15.5q-2 -29 -2 -65.5v-65.5q-2 -29 -2 -55v-84z" />
<glyph unicode="S" horiz-adv-x="1196" d="M12 209q-2 10 3 23.5t18 35.5q23 43 42 88t40 90q8 16 14 31t16 29q6 10 16.5 13t20.5 -7l45.5 -45.5l44.5 -44.5q53 -51 118 -81t132 -52q27 -8 62 -2q31 6 51 24.5t27.5 43t1 51t-28.5 49.5q-27 27 -57.5 48t-63.5 40q-53 33 -108.5 62.5t-112.5 56.5 q-86 41 -134 107.5t-73 154.5q-9 37 -9 73q0 84 52 156q29 41 57.5 68.5t89.5 58.5q84 41 164 52q55 8 104 8q22 0 42 -2q66 -5 118.5 -19.5t81.5 -26.5q53 -23 90 -61.5t76 -77.5q12 -12 8 -28.5t-14 -26.5q-37 -41 -73.5 -81t-75.5 -79q-16 -18 -41 -4q-20 16 -41 32.5 t-43 28.5q-29 16 -57.5 31.5t-57.5 26.5q-35 12 -62.5 3t-41.5 -38q-12 -25 -7 -58.5t29 -52.5q33 -23 66.5 -42t68.5 -38q49 -29 99.5 -56.5t97.5 -55.5q47 -29 85 -69t73 -83q41 -53 50 -115q5 -33 5 -65q0 -29 -4 -59q-29 -246 -268 -330q-86 -30 -170 -30h-16 q-92 3 -185 30q-86 23 -158 64.5t-143 86.5q-12 6 -25 19q-18 16 -27.5 25.5t-11.5 19.5z" />
<glyph unicode="T" horiz-adv-x="1323" d="M10 1264q0 20 12.5 27t28.5 7q245 6 489 6q13 0 26 1q231 0 464 -9q35 -2 55.5 -18t22.5 -45q4 -61 5 -121.5t3 -120.5q0 -37 -39 -33q-41 2 -80 4.5t-77 2.5q-40 1 -80 1l-80 -1q-29 -2 -35 -9.5t-6 -35.5v-102.5t-1 -151.5v-86v-89.5t0.5 -89t-0.5 -85.5 q-1 -83 -1 -150v-100q0 -41 -11.5 -52.5t-52.5 -13.5q-53 0 -105 -1t-106 -1q-33 -2 -41 6t-10 41q-2 129 -2 256t-2 256q-2 72 -3 159t-5 158q-2 31 -2 46.5t-6 22.5t-22.5 8t-49.5 1h-211q-23 0 -36 2t-20 8.5t-10.5 18.5t-5.5 35q-4 61 -5 123.5t-1 124.5z" />
<glyph unicode="U" horiz-adv-x="1343" d="M12 1137.5v113.5q0 37 8.5 45.5t49.5 8.5q35 -2 70 -2q26 0 52 1q37 2 74 2q24 0 49 -1q35 -2 41 -7.5t6 -40.5q-2 -63 -4 -125.5t-4 -125.5q-1 -61 -1 -122v-60q1 -90 1 -179q0 -51 12.5 -99t41.5 -91q64 -105 172 -105q21 0 43 4q47 6 73 45q82 111 82 240v18 q-2 70 -2 141q0 53 1 105.5t1 104.5q0 70 -2 141q0 10 -1 29.5t-2 41t-2 42t-1 30.5q0 12 36 15.5t85 3.5t97 -3t73 -5q18 -2 29.5 -1t18.5 -0.5t10 -8.5t5 -25q4 -53 7.5 -115.5t5.5 -114.5q2 -43 2 -86q0 -32 -1 -64q-3 -74 -5 -151q0 -51 -3.5 -102t-11.5 -103 q-23 -150 -88 -271.5t-199 -205.5q-41 -27 -93 -41t-102 -20t-93 -6t-68 2q-16 2 -56 9t-90 27.5t-105.5 55.5t-100.5 90t-75 134t-30 188q-2 96 -2 191v192l-1 39q-1 40 -2 98.5t-1 123z" />
<glyph unicode="V" horiz-adv-x="1472" d="M4 1237q-10 39 2 51t53 10q8 0 49.5 1t91.5 1h97h65t24.5 -11t10.5 -21q10 -20 16.5 -41t12.5 -41q39 -141 76 -281.5t76 -281.5q6 -20 16 -45q4 -4 9 -6.5t9 -6.5q4 0 11 10q8 20 12 29q59 156 124.5 310.5t112.5 314.5q23 71 89 71h2h82h101h88h42q29 -6 20 -34 q0 -8 -3 -15.5t-7 -15.5q-23 -57 -43 -114.5t-43 -112.5q-61 -145 -123.5 -287.5t-122.5 -286.5q-41 -98 -79.5 -193.5t-79.5 -195.5q-16 -41 -28.5 -44t-51.5 -3h-342q-18 2 -22.5 14.5t-8.5 26.5q-16 53 -31.5 105.5t-29.5 105.5q-41 150 -79 298t-79 296 q-25 88 -51.5 174t-53.5 172q-4 12 -7 23.5t-7 23.5z" />
<glyph unicode="W" horiz-adv-x="1898" d="M12 1257q-4 29 9.5 39.5t41.5 8.5q18 -2 59.5 -3.5t87.5 -1.5t86 1.5t58 3.5q16 0 21.5 -6.5t9.5 -18.5q8 -29 15.5 -63.5t14.5 -71.5t14 -73t13 -62q20 -76 39 -151t39 -148q2 -6 5 -13.5t14 -7.5q6 0 14 17q43 74 86 141t82 143q32 66 101 66h12q25 -2 49 -2l37 1 q26 2 52 2q18 0 36 -1q16 0 24 -8.5t17 -24.5q39 -92 79.5 -179t81.5 -177q4 -10 11.5 -23.5t15.5 -13.5q4 0 7 9t5 22.5t3 26.5t3 22q23 129 43.5 267t40.5 267q2 10 4.5 18.5t4.5 18.5q6 25 32 25q48 -3 96 -3q24 0 47.5 1t47.5 1q48 0 96 -3q37 -4 44 -15.5t1 -48.5 q-23 -117 -44 -251t-44 -251q-25 -137 -48.5 -272t-45.5 -270q-6 -35 -15.5 -71t-15.5 -69q-8 -33 -14 -40t-39 -9q-29 -1 -57 -1q-43 0 -85 2q-30 1 -61 1q-41 0 -82 -2q-33 -2 -50 12.5t-28 42.5q-27 63 -52 126t-52 124t-53.5 122t-53.5 122q-4 4 -7 11t-11 7 q-6 0 -10 -8t-8 -14q-70 -121 -126.5 -248t-109.5 -256q-4 -20 -12 -27q-8 -8 -16.5 -14t-18.5 -6q-34 -2 -67 -2q-25 0 -49.5 1t-49.5 1q-33 0 -68 -2q-29 0 -36 29q-25 109 -50.5 216t-50.5 216q-23 106 -46 210.5t-48 209.5q-8 37 -16.5 82t-16.5 93t-17 93t-18 82 q-2 8 -4 14t-4 14z" />
<glyph unicode="X" horiz-adv-x="1429" d="M23 59q78 111 156.5 221.5t158.5 221.5q16 23 30.5 45t30.5 45q16 20 14.5 36.5t-14.5 35.5q-55 88 -110.5 176t-110.5 178q-35 59 -71.5 116.5t-73.5 116.5q-12 19 -12 32q0 26 49 26h94h55h150q37 0 51 -31q18 -43 42.5 -81t52.5 -75t55.5 -74.5t52.5 -76.5 q12 -23 20 -22t23 24q43 68 86 135.5t84 136.5q8 16 15 27.5t17.5 18.5t27.5 10.5t48 3.5h154q30 0 66 1h23q23 0 42 -1q33 -2 28.5 -20.5t-20.5 -45.5q-55 -78 -109.5 -158t-107.5 -159q-43 -61 -85 -124t-85 -122q-16 -23 -15 -40.5t13 -39.5q23 -35 43 -69.5t45 -69.5 q66 -92 132.5 -181.5t133.5 -179.5q2 -4 11.5 -14t17.5 -23.5t13 -27t1 -23.5q-4 -6 -25.5 -8t-37.5 -2q-74 0 -146 3q-44 2 -87 2q-29 0 -58 -1q-29 -2 -46.5 9.5t-31.5 31.5l-154 240q-4 8 -9 16t-11 16q-18 18 -33 -2q-14 -18 -28.5 -36.5t-28.5 -38.5 q-37 -53 -73 -106.5t-73 -106.5q-14 -20 -38 -25h-149t-150 2q-14 0 -23 2q-32 7 -32 27q0 12 12 28z" />
<glyph unicode="Y" horiz-adv-x="1386" d="M18 1291.5q7 11.5 27 13.5h45t84 -1t94 -1t78 2q16 0 24.5 -7.5t16.5 -19.5q47 -70 94 -159t94 -161q6 -8 11.5 -15t11.5 -15q16 -23 37 0l18 24q25 29 62 80t70.5 100.5t58 86t26.5 38.5q18 37 42 43.5t59 6.5q27 0 67.5 -1t80.5 -1h71h37q14 -4 19 -16.5t-5 -26.5 q-4 -10 -11 -20.5t-16 -18.5q-41 -47 -80.5 -103.5t-81.5 -115t-83 -113.5t-80 -103q-43 -51 -90 -102q-39 -39 -39 -96v-6q6 -89 6 -190q0 -37 -1 -76.5t-1 -76.5q0 -101 6 -190q0 -23 -8 -35t-33 -14q-49 -3 -94 -3h-23h-37q-38 0 -77 -1q-29 0 -38 11t-14 40 q0 18 -1 68.5t-2 111t-1 117.5v88q0 27 -2 61.5t-8 69.5t-16 67t-29 56q-47 66 -87 134.5t-83 133.5q-41 59 -83 136t-83 137q-6 10 -14 17t-14 18q-12 16 -5 27.5z" />
<glyph unicode="Z" horiz-adv-x="1363" d="M11 1140q1 56 3 111q4 33 14.5 44.5t37.5 9.5q45 -4 124.5 -4.5t178 -0.5t205 2.5t202.5 2.5t174 -1.5t117 -3.5q16 0 30.5 -1t28.5 -3q29 -4 37 -12t6 -37q0 -23 1 -53.5t1 -63t-1 -63.5t-3 -53q2 -47 -45 -102.5t-112 -139.5q-35 -43 -96.5 -107.5t-125 -128 t-119 -115.5t-77.5 -73q-12 -8 -12 -24q0 -10 11 -10.5t19 -0.5l156 -2l78 1h78q78 0 157 -1h18.5t18.5 -2q33 -6 41 -16t8 -43q1 -38 1 -74v-36v-21q0 -43 3 -88q2 -20 -6 -26.5t-26 -6.5q-52 2 -103.5 2t-101.5 -2q-67 -3 -135 -3q-34 0 -68 1q-160 4 -317.5 4t-317.5 4 q-12 0 -23.5 1t-21.5 3q-33 4 -33 35q-1 62 -1 122.5t1 119.5q0 12 10.5 25.5t20.5 21.5q20 16 63.5 59t99.5 100.5t118.5 123t122 127t111.5 111.5t87 79q4 4 9.5 9t5.5 13t-10.5 8.5t-16.5 0.5q-81 2 -160 2q-59 0 -119 -1q-83 -2 -168 -2q-56 0 -112 1q-43 0 -54.5 9 t-11.5 54q-1 38 -1 76v38z" />
<glyph unicode="\" horiz-adv-x="704" d="M8 1120q-4 16 2 26.5t23 10.5q53 2 104 3t105 1q12 0 17 -9t9 -19q66 -266 129.5 -527.5t126.5 -527.5q4 -10 5 -20.5t3 -20.5q8 -33 0 -43t-38 -10q-23 -2 -44.5 0t-50.5 4q-2 0 -8 -2t-12 -2q-31 -4 -50.5 -2t-31.5 10t-20.5 26.5t-16.5 49.5q-31 121 -60.5 238.5 t-60.5 238.5q-12 53 -27.5 107.5t-27.5 109.5q-8 39 -12 78t-13 78q-10 41 -20 80.5t-21 80.5q-4 10 -6 20.5t-4 20.5z" />
<glyph unicode="_" horiz-adv-x="1011" d="M8 -330q-4 23 5.5 30t33.5 9q66 0 124 1t126 1q14 0 52 -1t81 -1t81 -1t50 -1q49 2 75 2t46 1t45 1t72 2q31 0 37 -5t8 -34q4 -35 4 -67.5t2 -67.5q0 -37 -33 -39q-31 -2 -61.5 -4t-61.5 -2q-53 0 -78.5 -1t-46 -3t-45 -3t-78.5 -1q-23 0 -70.5 1t-102 2t-102.5 1t-69 -2 q-39 -2 -54 9t-23 48q-6 33 -9.5 61.5t-7.5 63.5z" />
<glyph unicode="a" horiz-adv-x="1449" d="M8 53q20 63 41 123t43 121q43 137 86 273.5t88 273.5q14 47 35 114.5t40 131t33.5 108.5t16.5 49q6 20 9 32.5t10.5 19t23 8.5t43.5 2q25 0 83 -1t123 -1h124h86q37 2 48 -6.5t20 -43.5q16 -68 29.5 -131t29.5 -131q35 -147 69.5 -290.5t69.5 -288.5q16 -66 31.5 -132.5 t32.5 -131.5q6 -27 12 -52.5t12 -50.5q3 -10 3 -18q0 -31 -36 -37h-14q-42 -2 -84 -2q-32 0 -63.5 1t-62.5 1q-42 0 -83 -2q-31 0 -38 10t-11 45q-6 90 -33 180q-4 20 -17 22.5t-24 2.5q-37 1 -74 1q-38 0 -74 -1q-74 -2 -144 -4q-16 0 -24.5 -8.5t-12.5 -22.5 q-12 -47 -25.5 -88t-26.5 -88q-6 -23 -15 -32t-38 -9h-63h-102.5t-97.5 1t-46 1q-37 3 -37 30q0 9 4 21zM561 517q-4 -15 1 -21.5t20.5 -6.5h44.5l13 1q13 2 30.5 3t37 2t31.5 3q33 2 25 34q-16 72 -33.5 146t-34.5 145q-2 6 -6 13.5t-12 7.5t-9 -6.5t-3 -10.5 q-23 -66 -45.5 -132t-45.5 -132q-10 -31 -14 -46z" />
<glyph unicode="b" horiz-adv-x="1302" d="M6 78v579l1 63q1 64 1 154.5t-1 189.5t-1 173q0 29 10.5 43t38.5 20q16 2 32.5 2.5t33.5 0.5q38 -2 76.5 -2t76.5 2q28 1 55 1l153 -5q104 -6 208 -17q63 -8 111.5 -36.5t87.5 -76.5q12 -14 21.5 -39.5t17.5 -52t13 -47t5 -22.5q2 -16 1 -32q-1 -54 -21 -100 q-28 -60 -74 -112q-18 -20 -16 -25.5t28 -17.5q29 -14 56.5 -27.5t52.5 -31.5q94 -74 98 -197v-6q0 -178 -110 -328q-16 -23 -42 -40t-51 -34q-37 -25 -78.5 -37t-87.5 -16q-35 -2 -90 -3t-119.5 -1h-132t-126 1t-101.5 2t-59 1q-41 2 -54.5 17.5t-13.5 56.5zM344 498 q0 -12 1 -42t2 -63t2 -62.5t1 -43.5q0 -37 35 -35q25 2 49.5 1t46.5 3q41 8 80 21.5t72 44.5q41 41 41 86q0 7 -1 13q-7 52 -67 81q-54 23 -112 30q-46 5 -91 5h-26q-33 0 -33 -39zM348 868q0 -39 33 -37q35 2 69.5 3.5t69.5 5.5q31 6 57.5 21.5t32.5 51.5q3 16 3 31 q0 54 -46 86q-67 49 -150 49h-7q-41 0 -49.5 -8t-10.5 -49v-26.5t-1 -45t-1 -47.5v-35z" />
<glyph unicode="c" horiz-adv-x="1449" d="M6 590q0 131 33 246.5t96 222.5q29 47 67 83t85 64q113 70 233 100q86 22 180 22q37 0 74 -3q80 -8 153.5 -38t145.5 -60q30 -12 30 -33q0 -16 -16 -37q-41 -51 -82.5 -100t-84.5 -101q-14 -16 -31 -19t-39 1q-43 8 -87 10h-22q-32 0 -63 -4q-61 -6 -109.5 -32.5 t-82.5 -67.5q-34 -40 -50 -94q-13 -43 -13 -90q0 -11 1 -23q4 -35 8 -71t14 -68q18 -57 56.5 -93t101.5 -45q41 -6 82 -10q12 -1 23 -1l59 7q57 14 94 42t78 81q18 37 45 37q15 0 33 -12q53 -35 104.5 -70t102.5 -74q31 -23 22.5 -42t-30.5 -54q-12 -16 -53.5 -54t-96.5 -78 t-116.5 -76t-114.5 -50q-68 -18 -136 -22q-22 -1 -45 -1q-46 0 -94 5q-92 12 -175 46t-155 93q-12 10 -33.5 29.5t-45 45t-47 56.5t-37.5 66t-25.5 67.5t-22.5 67.5q-8 35 -9 68.5t-5 62.5z" />
<glyph unicode="d" horiz-adv-x="1449" d="M4 70q0 145 1 289.5t1 289.5l1 57q1 58 1 141v174v159q0 43 2 66.5t13.5 34.5t34 14t65.5 5q23 0 90.5 1.5t147 1.5t155.5 -2.5t117 -6.5q49 -4 98 -9t96 -21q43 -14 85 -37t79 -51q61 -41 107.5 -110t78 -140.5t50 -135t24.5 -96.5q10 -55 10 -107q0 -86 -28 -161 q-45 -121 -146 -225q-70 -72 -151.5 -117t-181.5 -59q-129 -17 -255 -25q-82 -5 -166 -5q-45 0 -89 1q-53 0 -103.5 4t-101.5 4q-23 -2 -28 8.5t-5 26.5q0 8 -1 15t-1 16zM410 375q0 -41 41 -43q25 -2 49 -2q62 0 118 14q80 20 152 74q35 27 61.5 57.5t36.5 73.5 q10 42 10 84q0 15 -1 31q-5 58 -23 114q-16 43 -45 77t-74 52q-66 29 -132 33t-134 4q-41 0 -48 -8t-7 -49q-1 -21 -1 -46v-26q1 -41 1 -80v-90q0 -68 -1 -135.5t-3 -134.5z" />
<glyph unicode="e" horiz-adv-x="1193" d="M6 1237q0 35 8.5 51.5t55.5 14.5q53 -2 134 -2.5t170 -0.5h181t169 1.5t132 1.5h74q41 0 43 -39q2 -53 2 -117v-117q0 -6 -9.5 -14t-15.5 -8q-29 -4 -56.5 -7.5t-55.5 -3.5q-100 -2 -194.5 -2t-194.5 -2q-35 0 -54.5 -2t-28 -11t-8.5 -28.5t2 -56.5q0 -20 -1 -26.5 t1 -24.5q2 -25 4.5 -39t8.5 -21.5t20.5 -9.5t40.5 -4q20 -4 56 -2t59 0q25 -2 36 -7t15 -15.5t3 -27t-1 -40.5q0 -8 -1 -15.5t1 -15.5q0 -37 -37 -37q-30 -2 -60.5 -2t-60.5 2q-33 0 -51 -1t-25.5 -9t-8.5 -25.5t-1 -48.5v-151q2 -43 43 -43h498q37 4 51.5 -5.5t16.5 -45.5 q4 -57 5 -127v-45q0 -44 -1 -82q0 -8 -9.5 -17.5t-17.5 -11.5q-12 -2 -56 -2h-106.5t-136.5 1t-145.5 2t-135 1h-102.5q-24 -1 -48 -1t-48 1q-49 2 -96 4q-39 2 -50.5 13.5t-11.5 50.5v135t2 135q0 47 1 91t3 91q-2 0 -1 40t2 96.5t2 119t1 107.5q0 78 -3 154.5t-7 154.5 q0 10 -1 21.5t-1 23.5z" />
<glyph unicode="f" horiz-adv-x="1300" d="M8 802.5q0 106.5 1 204t5 144.5q4 31 3 52.5t3 53.5q2 37 10.5 44.5t47.5 9.5h33q33 -2 95 -2h139h161h160.5t139 -1t95.5 -1q41 -2 83 -3t85 -1q23 0 28 -10.5t5 -28.5q2 -57 2 -114.5t2 -113.5q0 -39 -8 -50t-49 -11h-148t-147 2q-53 0 -104.5 1t-104.5 1q-20 0 -40 1 t-40 -1q-43 -4 -52.5 -14.5t-11.5 -51.5q-2 -39 -3 -69.5t-3 -69.5q0 -47 8.5 -58t57.5 -16q39 -4 79 -4q20 0 40 1q26 1 52 1q34 0 68 -2q23 -2 47.5 -1t47.5 -1q37 -4 54 -4t23.5 -7t6.5 -23.5t4 -49.5q4 -41 4 -84t-2 -84q0 -27 -8.5 -34t-34.5 -7q-92 -2 -184.5 -2 t-184.5 -2q-8 0 -15 1t-16 1q-37 0 -44 -6t-7 -41q-2 -55 -2 -124.5t-2 -125.5q0 -41 -3 -62.5t-13.5 -30.5t-31 -10t-58.5 -1q-51 2 -100.5 3t-100.5 3q-41 4 -51.5 13.5t-12.5 45.5q-2 102 -2 204t-2 204q0 39 -2 132t-2 199.5z" />
<glyph unicode="g" horiz-adv-x="1472" d="M-30 722q26 169 122 329q55 92 141 149t191 88q110 34 218 34h6q112 -1 224 -24q53 -10 98.5 -34.5t92.5 -46.5q16 -8 16 -20.5t-12 -22.5q-53 -47 -103.5 -93.5t-103.5 -93.5q-8 -6 -21.5 -10t-17.5 0q-35 25 -73 25h-12q-44 -5 -87 -9q-35 -4 -68.5 -12t-64.5 -23 q-59 -29 -105 -85t-67 -127q-14 -48 -14 -101q0 -23 3 -47q9 -78 60 -152q47 -68 116 -96q51 -21 110 -21q21 0 43 3q39 4 75.5 14t67.5 37q14 10 26.5 22.5t22.5 26.5q10 16 20.5 38t6.5 38q-2 10 -9.5 14t-17.5 4t-21.5 -1t-19.5 1q-14 2 -26.5 2t-26.5 2 q-45 4 -57.5 17.5t-14.5 58.5q-2 27 -2 51.5t-4 49.5q-2 41 33 41q47 0 96 -1.5t96 -1.5q16 -2 32 -3t32 -1h118.5t118.5 -2q35 -2 42 -8t14 -39q5 -31 5 -61q0 -34 -7 -67q-11 -62 -31 -122q-25 -76 -68 -139t-96 -121q-66 -72 -145.5 -119t-178.5 -63q-82 -13 -162 -13 q-20 0 -39 1q-100 4 -198 49q-53 23 -100 45t-92 59q-27 23 -45.5 49.5t-40.5 55.5q-14 29 -32 60.5t-28 64.5q-44 128 -44 250q0 51 8 101z" />
<glyph unicode="h" horiz-adv-x="1323" d="M10 147v253t2 253l1 45t2 108.5t2 133.5t1 121q0 45 -1 100.5t-1 100.5q0 25 8.5 34t30.5 9h129.5t126.5 -2q61 -2 68 -66q2 -23 1 -52.5t-1 -51.5q-2 -61 -3 -124t-1 -124q0 -16 1 -33.5t5 -34.5q4 -10 14.5 -18t16.5 -8h30h217q37 0 57.5 1t31 10t13.5 28.5t3 56.5 q3 67 3 137v35q-1 88 -1 172q0 12 -1 23.5t3 21.5q2 31 37 31q50 -3 100 -3h25h21q53 0 108 -4q29 -2 33 -8t4 -39q0 -53 1 -115.5t1 -115.5q-2 -49 -3 -97t-1 -98q-1 -38 -1 -76v-37q1 -56 1 -114q2 -123 2 -241.5v-241.5q0 -14 1 -26.5t-1 -27.5q-4 -35 -18.5 -48 t-49.5 -13q-39 -1 -78 -1h-38.5h-38.5q-39 0 -78 -1q-33 0 -33 33q0 27 1 52.5t-1 51.5q-2 72 -3 140.5t-5 140.5q-2 20 -4 32.5t-8.5 17.5t-18.5 7t-33 2q-66 2 -129 4q-21 1 -42 1q-42 0 -85 -3q-20 -4 -31.5 -5t-17.5 -7t-8 -17.5t-2 -33.5q-2 -80 -2 -165v-165 q0 -43 -15.5 -61.5t-60.5 -24.5q-2 -2 -6 -2q-59 0 -116.5 1t-117.5 1q-23 0 -32 11.5t-11 31.5q-2 27 -3 52.5t-1 51.5z" />
<glyph unicode="i" d="M10 1155q0 25 1 49.5t3 48.5q4 29 11.5 36t33.5 11q73 8 143 8h9q74 0 149 -12q23 -2 37.5 -4t16.5 -24q4 -20 3 -51t-1 -52q-2 -135 -4 -304t-6 -353v-463q0 -33 -9.5 -40t-44.5 -3q-42 5 -83 5q-26 0 -52 -2q-48 -4 -99 -4q-21 0 -42 1q-9 -1 -16 -1q-47 0 -48 54 q-1 25 -1 48v22q1 33 1 72q2 92 2 184v184q0 139 -1 295t-3 295z" />
<glyph unicode="j" horiz-adv-x="1300" d="M2 600q-2 20 0 33.5t8 22t18.5 13.5t32.5 9h32h73t88 -1t78 -1q35 0 35 -39q-2 -27 -2 -53.5t4 -53.5q10 -80 59 -116q37 -28 92 -28q19 0 39 3q74 12 110 44t52 108q18 98 18 196q0 121 -3 229.5t-5 231.5q-2 35 0 55.5t11.5 30.5t27.5 14.5t53 4.5q46 2 93.5 2t95.5 -2 q51 -2 64.5 -17.5t17.5 -71.5v-70v-119t-2 -147.5t-4.5 -152.5t-5.5 -136t-9 -97q-16 -106 -56 -202.5t-110 -180.5q-39 -47 -87 -77t-109 -42q-41 -8 -79 -14q-28 -4 -57 -4q-11 0 -22 1q-12 0 -62.5 3.5t-116 20.5t-136 56t-123.5 113q-27 43 -45.5 91t-30.5 97 q-14 59 -21.5 122t-15.5 124z" />
<glyph unicode="k" horiz-adv-x="1343" d="M4 233.5v161.5q0 68 1 135.5t1 135.5q-2 0 -2 63.5v154.5t1 191t1 172q0 41 11.5 50.5t52.5 11.5h90t90 -2q54 -2 72 -26q17 -22 16 -69v-10q-2 -43 -2 -87q0 -33 1 -65q3 -76 3 -151q0 -14 8 -18t21 4q66 57 130 113.5t130 115.5q37 33 78 80t77 82q23 23 47.5 29 t55.5 4q113 -6 227 -6q16 0 33.5 -2.5t23.5 -20.5q3 -10 3 -20q0 -27 -25 -48q-41 -35 -84 -84t-84 -86q-66 -57 -128 -115.5t-128 -115.5q-16 -14 -24.5 -22.5t-9.5 -15.5t3 -17.5t15 -26.5q59 -102 118.5 -202.5t118.5 -200.5q41 -66 81 -128.5t81 -125.5q8 -12 14 -22.5 t-4 -24.5q-14 -27 -51 -27q-18 2 -57 1t-81 -1t-80 1t-54 7t-28.5 21.5t-23 35t-19.5 39t-17 33.5q-57 92 -110.5 185.5t-107.5 187.5l-24 37q-16 27 -37 8q-18 -16 -35.5 -33.5t-36.5 -34.5q-16 -14 -18 -32.5t-2 -36.5q0 -80 1 -159t1 -159v-53q-4 -41 -43 -41 q-30 2 -59 2t-57.5 -2t-58 -2t-59.5 2q-33 4 -44 18.5t-11 49.5q-2 78 -2 161.5z" />
<glyph unicode="l" horiz-adv-x="1067" d="M6 1262q0 37 33 38q52 4 100 4h11q10 0 22 -1q43 0 90 2h11q39 -1 51 -13q14 -14 16 -61q6 -145 7.5 -302t6.5 -302q1 -24 1 -48q0 -35 -2 -69q-1 -24 -1 -48q0 -33 2 -67q2 -39 10.5 -47t49.5 -8q72 -4 143.5 -4h142.5h96.5t42 -12.5t12.5 -41t5 -85.5q4 -41 5 -79 l5 -82q0 -38 -43 -38q-47 2 -96 3t-98 1h-254t-252 2h-23.5t-21.5 2q-41 4 -55.5 19.5t-14.5 58.5q0 86 1 173t1 173v43v113q0 68 1 158q0 45 0.5 90.5t-0.5 92.5q-1 93 -2 180t-3 155z" />
<glyph unicode="m" horiz-adv-x="2004" d="M6 1249q-2 35 6 43t41 11h54h81h83h59q33 4 52 -8.5t36 -41.5q59 -115 121.5 -226.5t124.5 -223.5l147 -271q16 -29 26.5 -27.5t26.5 30.5q29 47 55.5 92t55.5 92q41 70 85 136.5t85 137.5q37 63 70.5 126t66.5 128q16 29 35.5 46.5t54.5 13.5q12 -2 52 -2h84t81 1t41 1 q35 0 53.5 -2t27.5 -11.5t10 -29t1 -56.5q0 -203 2 -403.5t7 -403.5q1 -60 1 -117v-56v-33q0 -67 3 -138q2 -47 -5.5 -55t-52.5 -6q-18 0 -56 1t-79 1h-78h-51q-29 -2 -38 6t-9 39q-2 141 -3 278.5t-3 278.5q0 16 -2 23q0 10 -8 18q-4 4 -7.5 0t-5.5 -6q-10 -14 -18 -26.5 t-16 -26.5q-78 -133 -157 -269.5t-157 -271.5q-10 -16 -22.5 -28.5t-40.5 -12.5h-178q-45 0 -59.5 17.5t-31.5 52.5q-57 123 -116.5 241.5t-120.5 239.5q-8 16 -17.5 32.5t-19.5 32.5q-2 4 -7 7t-5 -11t-1 -17t1 -11q6 -135 12 -268.5t12 -268.5q2 -29 -4 -35t-39 -10 q-35 -4 -67.5 -4h-65.5h-92t-90 2q-31 0 -25 31q-1 78 -1 155v78q1 116 1 232q-6 377 -6 753z" />
<glyph unicode="n" horiz-adv-x="1536" d="M6 627q-1 37 -1 74t1 73q2 74 2 148l-1 36q-1 35 -1 84.5t1 101.5t1 87v45q4 35 35 29q39 1 75 1q38 0 72 -1q23 -1 46 -1q46 0 94 3q27 2 40 -7.5t27 -27.5q55 -80 110.5 -170t114 -179t119 -176.5t123.5 -160.5q14 -16 35 -38t29 -22t10 31t2 53q-2 68 -3 148t-3 160.5 t-3 160.5t-3 148q-2 45 7 57t52 14q59 4 117 6l64 2q26 0 53 -1q53 0 65 -13.5t12 -64.5q0 -43 -1 -98.5t-2 -113t-2 -112.5t-1 -98q4 -113 7.5 -225.5t7.5 -227.5q4 -78 4 -154.5t2 -154.5q0 -27 -6.5 -34t-32.5 -7h-173t-175 4q-12 0 -26.5 7t-25.5 18q-59 55 -102 110 q-23 27 -55.5 72t-68.5 99.5t-73.5 112.5t-70.5 107.5t-56.5 85t-31.5 48.5q-2 4 -8.5 4t-10.5 2q-2 -2 -2 -4q-2 -2 -2 -11v-95t2 -95q2 -98 4 -196.5t7 -196.5q0 -48 -14 -62q-13 -13 -51 -12h-11q-33 2 -65 4t-64 2q-16 -1 -35.5 -1t-41.5 1h-21q-31 0 -58 -4 q-27 -6 -33 21q-4 16 -2 26t2 27q-4 104 -4 207v69q1 46 1 91q0 92 -3 184z" />
<glyph unicode="o" horiz-adv-x="1492" d="M-20 630q-2 18 -1 38q0 37 7 75q20 100 68 196.5t123 174.5t177.5 132t229.5 69q34 4 67 4q41 -1 83 -7q74 -12 147 -38q123 -47 206.5 -132t137.5 -206q29 -66 53 -129q21 -54 21 -118q0 -11 -1 -21q-10 -94 -30.5 -182.5t-60.5 -167t-100 -145.5t-146 -116 q-68 -39 -139.5 -59.5t-149.5 -20.5q-127 0 -226.5 32t-174 82t-127 112.5t-86 123t-50 111.5t-18.5 82q-4 54 -10 110zM332 616v-7q0 -33 18 -74q20 -46 59.5 -87.5t97.5 -71.5t132 -30q82 0 141.5 34t99.5 83t59 106.5t19 106.5q0 25 -1 38t-3 21t-4 15.5t-4 19.5 q-6 31 -33.5 66.5t-67.5 67.5t-88 53.5t-93 21.5q-92 0 -155 -37t-100.5 -91t-56 -117.5t-20.5 -117.5z" />
<glyph unicode="p" horiz-adv-x="1300" d="M12 678l1 44t2 106.5t3.5 132t4.5 118.5q1 16 1 31q0 20 -2 40q-2 36 -2 73q2 43 16.5 59t57.5 21q35 4 68 4h65q111 -2 221.5 -2t221.5 -5q115 -6 215 -43q29 -10 72.5 -43.5t83.5 -86t69 -119t29 -140.5q0 -115 -39 -194.5t-100.5 -136t-136.5 -92t-146 -58.5 q-91 -28 -187 -28q-31 0 -63 3q-43 4 -51 -8t-8 -59q-1 -41 -1 -78v-35q1 -53 5 -112q2 -43 -12.5 -61.5t-57.5 -16.5q-63 0 -133 -3q-30 -1 -59 -1q-38 0 -74 2q-29 2 -38 13t-13 42q-3 37 -3 74q0 18 1 37q1 27 1 54.5t-1 55.5q-4 104 -5.5 205.5t-5.5 206.5zM406 1004 q0 -55 1 -131t3 -132q2 -29 10 -39t35 -8q20 2 70 4t102.5 18.5t91.5 51.5t39 102q0 53 -21.5 89t-53.5 58.5t-70 33t-70.5 13.5t-55 2t-26.5 -1q-41 -4 -49.5 -12.5t-5.5 -48.5z" />
<glyph unicode="q" horiz-adv-x="1622" d="M10 688q0 45 13.5 98.5t38 107.5t59.5 106.5t78 95.5q102 102 225 156.5t260 70.5q32 4 64 4q59 0 117 -15q89 -22 169 -73q135 -82 209 -199.5t105 -271.5q11 -58 11 -113q0 -58 -12 -113q-24 -106 -77 -210q-16 -35 -24.5 -53.5t-7.5 -34t14.5 -32.5t39.5 -46 q25 -29 49.5 -56.5t49.5 -54.5q27 -27 0 -43q-57 -41 -112.5 -78.5t-113.5 -76.5q-25 -16 -47 10q-29 35 -56.5 68.5t-55.5 70.5q-18 25 -44 25q-10 0 -22 -4q-33 -12 -65.5 -22.5t-67.5 -16.5q-44 -8 -88 -8q-40 0 -80 7q-82 15 -162 44q-33 10 -64.5 24.5t-62.5 30.5 q-96 47 -171 115.5t-113 171.5q-14 37 -24.5 81t-18 87t-10.5 82t-3 65zM379 653q0 -53 11 -80.5t26 -62.5q41 -94 127 -132q74 -33 162 -33q14 0 28 1q88 4 145.5 50t86.5 128q24 72 24 145q0 13 -1 27q-5 86 -54 156q-45 61 -100.5 89t-105.5 36q-36 6 -65 6q-11 0 -21 -1 q-36 -3 -42 -3q-41 -10 -79 -35.5t-60 -62.5q-33 -51 -57.5 -112.5t-24.5 -115.5z" />
<glyph unicode="r" horiz-adv-x="1343" d="M12 104q2 82 2 164t4 164q2 78 2 152.5v152.5q1 62 1 124.5t-1 124.5q-2 124 -2 249q0 45 12.5 56.5t59.5 8.5h172l24 2q23 1 58 3q36 2 72 3h23q23 0 42 -1q111 -4 220.5 -12.5t216.5 -51.5q53 -23 96 -54.5t73 -78.5q47 -70 65 -146q14 -58 14 -115q0 -18 -1 -37 q-6 -75 -32.5 -143.5t-69.5 -123.5q-20 -25 -50 -44.5t-59 -37.5q-16 -10 -19 -20.5t7 -26.5q35 -59 71 -117.5t72 -118.5q14 -23 35 -61.5t37 -61.5q14 -25 4 -49q-6 -16 -17 -18t-26 -2q-44 3 -87 3q-21 0 -42 -1q-63 -2 -129 -2q-23 0 -33 8t-20 24q-39 72 -85 161 t-87 161q-8 14 -16.5 26.5t-16.5 24.5q-16 31 -55 31q-23 0 -42.5 3t-41.5 3q-33 2 -44 -7t-11 -44l4 -160l4 -160q2 -29 -6.5 -41t-34.5 -18q-10 -4 -22.5 -4h-22.5q-53 0 -103.5 -1t-103.5 -1q-16 0 -30.5 1t-31.5 3q-35 4 -41 39q-2 16 -5 33.5t-3 33.5zM410 707 q0 -35 36 -35q41 4 81 5t81 5q41 6 79 22.5t69 49.5q23 26 30 60q3 17 3 33q1 19 -3 35q-8 34 -28.5 59.5t-50.5 33.5q-119 30 -234 30q-20 0 -39 -1q-6 -2 -13 -11.5t-7 -15.5q-2 -29 -2 -65.5v-65.5q-2 -29 -2 -55v-84z" />
<glyph unicode="s" horiz-adv-x="1196" d="M12 209q-2 10 3 23.5t18 35.5q23 43 42 88t40 90q8 16 14 31t16 29q6 10 16.5 13t20.5 -7l45.5 -45.5l44.5 -44.5q53 -51 118 -81t132 -52q27 -8 62 -2q31 6 51 24.5t27.5 43t1 51t-28.5 49.5q-27 27 -57.5 48t-63.5 40q-53 33 -108.5 62.5t-112.5 56.5 q-86 41 -134 107.5t-73 154.5q-9 37 -9 73q0 84 52 156q29 41 57.5 68.5t89.5 58.5q84 41 164 52q55 8 104 8q22 0 42 -2q66 -5 118.5 -19.5t81.5 -26.5q53 -23 90 -61.5t76 -77.5q12 -12 8 -28.5t-14 -26.5q-37 -41 -73.5 -81t-75.5 -79q-16 -18 -41 -4q-20 16 -41 32.5 t-43 28.5q-29 16 -57.5 31.5t-57.5 26.5q-35 12 -62.5 3t-41.5 -38q-12 -25 -7 -58.5t29 -52.5q33 -23 66.5 -42t68.5 -38q49 -29 99.5 -56.5t97.5 -55.5q47 -29 85 -69t73 -83q41 -53 50 -115q5 -33 5 -65q0 -29 -4 -59q-29 -246 -268 -330q-86 -30 -170 -30h-16 q-92 3 -185 30q-86 23 -158 64.5t-143 86.5q-12 6 -25 19q-18 16 -27.5 25.5t-11.5 19.5z" />
<glyph unicode="t" horiz-adv-x="1323" d="M10 1264q0 20 12.5 27t28.5 7q245 6 489 6q13 0 26 1q231 0 464 -9q35 -2 55.5 -18t22.5 -45q4 -61 5 -121.5t3 -120.5q0 -37 -39 -33q-41 2 -80 4.5t-77 2.5q-40 1 -80 1l-80 -1q-29 -2 -35 -9.5t-6 -35.5v-102.5t-1 -151.5v-86v-89.5t0.5 -89t-0.5 -85.5 q-1 -83 -1 -150v-100q0 -41 -11.5 -52.5t-52.5 -13.5q-53 0 -105 -1t-106 -1q-33 -2 -41 6t-10 41q-2 129 -2 256t-2 256q-2 72 -3 159t-5 158q-2 31 -2 46.5t-6 22.5t-22.5 8t-49.5 1h-211q-23 0 -36 2t-20 8.5t-10.5 18.5t-5.5 35q-4 61 -5 123.5t-1 124.5z" />
<glyph unicode="u" horiz-adv-x="1343" d="M12 1137.5v113.5q0 37 8.5 45.5t49.5 8.5q35 -2 70 -2q26 0 52 1q37 2 74 2q24 0 49 -1q35 -2 41 -7.5t6 -40.5q-2 -63 -4 -125.5t-4 -125.5q-1 -61 -1 -122v-60q1 -90 1 -179q0 -51 12.5 -99t41.5 -91q64 -105 172 -105q21 0 43 4q47 6 73 45q82 111 82 240v18 q-2 70 -2 141q0 53 1 105.5t1 104.5q0 70 -2 141q0 10 -1 29.5t-2 41t-2 42t-1 30.5q0 12 36 15.5t85 3.5t97 -3t73 -5q18 -2 29.5 -1t18.5 -0.5t10 -8.5t5 -25q4 -53 7.5 -115.5t5.5 -114.5q2 -43 2 -86q0 -32 -1 -64q-3 -74 -5 -151q0 -51 -3.5 -102t-11.5 -103 q-23 -150 -88 -271.5t-199 -205.5q-41 -27 -93 -41t-102 -20t-93 -6t-68 2q-16 2 -56 9t-90 27.5t-105.5 55.5t-100.5 90t-75 134t-30 188q-2 96 -2 191v192l-1 39q-1 40 -2 98.5t-1 123z" />
<glyph unicode="v" horiz-adv-x="1472" d="M4 1237q-10 39 2 51t53 10q8 0 49.5 1t91.5 1h97h65t24.5 -11t10.5 -21q10 -20 16.5 -41t12.5 -41q39 -141 76 -281.5t76 -281.5q6 -20 16 -45q4 -4 9 -6.5t9 -6.5q4 0 11 10q8 20 12 29q59 156 124.5 310.5t112.5 314.5q23 71 89 71h2h82h101h88h42q29 -6 20 -34 q0 -8 -3 -15.5t-7 -15.5q-23 -57 -43 -114.5t-43 -112.5q-61 -145 -123.5 -287.5t-122.5 -286.5q-41 -98 -79.5 -193.5t-79.5 -195.5q-16 -41 -28.5 -44t-51.5 -3h-342q-18 2 -22.5 14.5t-8.5 26.5q-16 53 -31.5 105.5t-29.5 105.5q-41 150 -79 298t-79 296 q-25 88 -51.5 174t-53.5 172q-4 12 -7 23.5t-7 23.5z" />
<glyph unicode="w" horiz-adv-x="1898" d="M12 1257q-4 29 9.5 39.5t41.5 8.5q18 -2 59.5 -3.5t87.5 -1.5t86 1.5t58 3.5q16 0 21.5 -6.5t9.5 -18.5q8 -29 15.5 -63.5t14.5 -71.5t14 -73t13 -62q20 -76 39 -151t39 -148q2 -6 5 -13.5t14 -7.5q6 0 14 17q43 74 86 141t82 143q32 66 101 66h12q25 -2 49 -2l37 1 q26 2 52 2q18 0 36 -1q16 0 24 -8.5t17 -24.5q39 -92 79.5 -179t81.5 -177q4 -10 11.5 -23.5t15.5 -13.5q4 0 7 9t5 22.5t3 26.5t3 22q23 129 43.5 267t40.5 267q2 10 4.5 18.5t4.5 18.5q6 25 32 25q48 -3 96 -3q24 0 47.5 1t47.5 1q48 0 96 -3q37 -4 44 -15.5t1 -48.5 q-23 -117 -44 -251t-44 -251q-25 -137 -48.5 -272t-45.5 -270q-6 -35 -15.5 -71t-15.5 -69q-8 -33 -14 -40t-39 -9q-29 -1 -57 -1q-43 0 -85 2q-30 1 -61 1q-41 0 -82 -2q-33 -2 -50 12.5t-28 42.5q-27 63 -52 126t-52 124t-53.5 122t-53.5 122q-4 4 -7 11t-11 7 q-6 0 -10 -8t-8 -14q-70 -121 -126.5 -248t-109.5 -256q-4 -20 -12 -27q-8 -8 -16.5 -14t-18.5 -6q-34 -2 -67 -2q-25 0 -49.5 1t-49.5 1q-33 0 -68 -2q-29 0 -36 29q-25 109 -50.5 216t-50.5 216q-23 106 -46 210.5t-48 209.5q-8 37 -16.5 82t-16.5 93t-17 93t-18 82 q-2 8 -4 14t-4 14z" />
<glyph unicode="x" horiz-adv-x="1429" d="M23 59q78 111 156.5 221.5t158.5 221.5q16 23 30.5 45t30.5 45q16 20 14.5 36.5t-14.5 35.5q-55 88 -110.5 176t-110.5 178q-35 59 -71.5 116.5t-73.5 116.5q-12 19 -12 32q0 26 49 26h94h55h150q37 0 51 -31q18 -43 42.5 -81t52.5 -75t55.5 -74.5t52.5 -76.5 q12 -23 20 -22t23 24q43 68 86 135.5t84 136.5q8 16 15 27.5t17.5 18.5t27.5 10.5t48 3.5h154q30 0 66 1h23q23 0 42 -1q33 -2 28.5 -20.5t-20.5 -45.5q-55 -78 -109.5 -158t-107.5 -159q-43 -61 -85 -124t-85 -122q-16 -23 -15 -40.5t13 -39.5q23 -35 43 -69.5t45 -69.5 q66 -92 132.5 -181.5t133.5 -179.5q2 -4 11.5 -14t17.5 -23.5t13 -27t1 -23.5q-4 -6 -25.5 -8t-37.5 -2q-74 0 -146 3q-44 2 -87 2q-29 0 -58 -1q-29 -2 -46.5 9.5t-31.5 31.5l-154 240q-4 8 -9 16t-11 16q-18 18 -33 -2q-14 -18 -28.5 -36.5t-28.5 -38.5 q-37 -53 -73 -106.5t-73 -106.5q-14 -20 -38 -25h-149t-150 2q-14 0 -23 2q-32 7 -32 27q0 12 12 28z" />
<glyph unicode="y" horiz-adv-x="1386" d="M18 1291.5q7 11.5 27 13.5h45t84 -1t94 -1t78 2q16 0 24.5 -7.5t16.5 -19.5q47 -70 94 -159t94 -161q6 -8 11.5 -15t11.5 -15q16 -23 37 0l18 24q25 29 62 80t70.5 100.5t58 86t26.5 38.5q18 37 42 43.5t59 6.5q27 0 67.5 -1t80.5 -1h71h37q14 -4 19 -16.5t-5 -26.5 q-4 -10 -11 -20.5t-16 -18.5q-41 -47 -80.5 -103.5t-81.5 -115t-83 -113.5t-80 -103q-43 -51 -90 -102q-39 -39 -39 -96v-6q6 -89 6 -190q0 -37 -1 -76.5t-1 -76.5q0 -101 6 -190q0 -23 -8 -35t-33 -14q-49 -3 -94 -3h-23h-37q-38 0 -77 -1q-29 0 -38 11t-14 40 q0 18 -1 68.5t-2 111t-1 117.5v88q0 27 -2 61.5t-8 69.5t-16 67t-29 56q-47 66 -87 134.5t-83 133.5q-41 59 -83 136t-83 137q-6 10 -14 17t-14 18q-12 16 -5 27.5z" />
<glyph unicode="z" horiz-adv-x="1366" d="M11 1140q1 56 3 111q4 33 14.5 44.5t37.5 9.5q45 -4 124.5 -4.5t178 -0.5t205 2.5t202.5 2.5t174 -1.5t117 -3.5q16 0 30.5 -1t28.5 -3q29 -4 37 -12t6 -37q0 -23 1 -53.5t1 -63t-1 -63.5t-3 -53q2 -47 -45 -102.5t-112 -139.5q-35 -43 -96.5 -107.5t-125 -128 t-119 -115.5t-77.5 -73q-12 -8 -12 -24q0 -10 11 -10.5t19 -0.5l156 -2l78 1h78q78 0 157 -1h18.5t18.5 -2q33 -6 41 -16t8 -43q1 -38 1 -74v-36v-21q0 -43 3 -88q2 -20 -6 -26.5t-26 -6.5q-52 2 -103.5 2t-101.5 -2q-67 -3 -135 -3q-34 0 -68 1q-160 4 -317.5 4t-317.5 4 q-12 0 -23.5 1t-21.5 3q-33 4 -33 35q-1 62 -1 122.5t1 119.5q0 12 10.5 25.5t20.5 21.5q20 16 63.5 59t99.5 100.5t118.5 123t122 127t111.5 111.5t87 79q4 4 9.5 9t5.5 13t-10.5 8.5t-16.5 0.5q-81 2 -160 2q-59 0 -119 -1q-83 -2 -168 -2q-56 0 -112 1q-43 0 -54.5 9 t-11.5 54q-1 38 -1 76v38z" />
<glyph unicode="&#xab;" horiz-adv-x="1099" d="M5 412.5q1 23.5 22 52.5q53 78 102 159t96 162q18 33 43 50.5t66 13.5q33 -4 64.5 1t64.5 3q57 0 26 -43q-35 -53 -68.5 -102.5t-68.5 -100.5q-23 -35 -44 -70.5t-44 -70.5q-29 -43 -2 -94q41 -78 82 -153t82 -152q4 -10 12 -31t4 -25q-4 -8 -15 -10t-21 -6q-2 0 -23 1 t-47.5 2t-50 1t-29.5 -2q-25 -6 -39 5t-22 30q-35 86 -82 164.5t-93 158.5q-16 33 -15 56.5zM419 441.5q-1 11.5 13 27.5q74 88 145.5 176t145.5 174q10 12 28.5 17.5t34.5 9.5q23 2 45.5 0t57.5 -4h25.5t37.5 -2q8 0 16.5 -3t16.5 -6q-4 -8 -6 -16t-6 -14 q-23 -29 -43.5 -54.5t-42.5 -52.5q-49 -57 -97.5 -112.5t-99.5 -110.5q-31 -37 -8 -78l197 -319q8 -14 19 -27.5t1 -30.5q-8 -10 -24.5 -14t-32.5 -6q-31 -4 -61.5 -4h-59.5q-8 0 -17.5 4t-13.5 10q-25 66 -67.5 119t-77.5 113q-27 47 -56.5 90t-58.5 86q-10 16 -11 27.5z " />
<glyph unicode="&#xad;" d="M5 542.5q-1 28.5 9.5 41t36 12.5h74.5h38.5t43 1t27.5 1l22 2h195q23 0 18 -22l-6 -123q-2 -31 -10.5 -41.5t-38.5 -12.5q-41 -4 -80 -4h-80h-172q-35 0 -46 10.5t-22 41.5q-2 4 -2 6t-2 6q-4 53 -5 81.5z" />
<glyph unicode="&#xbb;" horiz-adv-x="935" d="M11 7q-3 5 14 40q35 80 69.5 160t69.5 158q12 25 10 44t-16 42q-35 66 -68 134t-67 136q-12 27 -7.5 34t35.5 9q41 4 80 5t78 -1q8 0 17.5 -8t13.5 -17q29 -59 59.5 -119.5t58.5 -119.5q12 -25 28.5 -50.5t16.5 -52.5q2 -27 -14 -53t-27 -53q-23 -55 -47 -109.5 t-45 -109.5q-18 -51 -51 -68.5t-82 -13.5q-10 2 -18.5 2h-16.5q-14 0 -26.5 1t-24.5 3q-37 2 -40 7zM406 53q35 72 67.5 144.5t67.5 144.5q20 37 22 70.5t-18 72.5q-25 43 -47.5 88t-44.5 93q-6 10 -12.5 21t-12.5 24q-18 47 33 53q29 4 54.5 4t53.5 4q25 4 42.5 -4 t27.5 -33q37 -78 74 -156.5t75 -156.5q8 -18 3 -30.5t-11 -29.5q-37 -84 -72.5 -165.5t-70.5 -165.5q-10 -23 -21.5 -33t-35.5 -6q-12 2 -31 1t-19 1q-20 -2 -39.5 -2t-39.5 -2q-78 -6 -45 63z" />
<glyph unicode="&#x2000;" horiz-adv-x="682" />
<glyph unicode="&#x2001;" horiz-adv-x="1365" />
<glyph unicode="&#x2002;" horiz-adv-x="682" />
<glyph unicode="&#x2003;" horiz-adv-x="1365" />
<glyph unicode="&#x2004;" horiz-adv-x="455" />
<glyph unicode="&#x2005;" horiz-adv-x="341" />
<glyph unicode="&#x2006;" horiz-adv-x="227" />
<glyph unicode="&#x2007;" horiz-adv-x="227" />
<glyph unicode="&#x2008;" horiz-adv-x="170" />
<glyph unicode="&#x2009;" horiz-adv-x="273" />
<glyph unicode="&#x200a;" horiz-adv-x="75" />
<glyph unicode="&#x2010;" d="M5 542.5q-1 28.5 9.5 41t36 12.5h74.5h38.5t43 1t27.5 1l22 2h195q23 0 18 -22l-6 -123q-2 -31 -10.5 -41.5t-38.5 -12.5q-41 -4 -80 -4h-80h-172q-35 0 -46 10.5t-22 41.5q-2 4 -2 6t-2 6q-4 53 -5 81.5z" />
<glyph unicode="&#x2011;" d="M5 542.5q-1 28.5 9.5 41t36 12.5h74.5h38.5t43 1t27.5 1l22 2h195q23 0 18 -22l-6 -123q-2 -31 -10.5 -41.5t-38.5 -12.5q-41 -4 -80 -4h-80h-172q-35 0 -46 10.5t-22 41.5q-2 4 -2 6t-2 6q-4 53 -5 81.5z" />
<glyph unicode="&#x2012;" d="M5 542.5q-1 28.5 9.5 41t36 12.5h74.5h38.5t43 1t27.5 1l22 2h195q23 0 18 -22l-6 -123q-2 -31 -10.5 -41.5t-38.5 -12.5q-41 -4 -80 -4h-80h-172q-35 0 -46 10.5t-22 41.5q-2 4 -2 6t-2 6q-4 53 -5 81.5z" />
<glyph unicode="&#x2013;" horiz-adv-x="768" d="M13 508.5q1 26.5 1 52.5q-2 27 5.5 35t35.5 8q66 2 130.5 1t129.5 -1v2h246q27 0 31 -4t2 -33q0 -33 1 -64.5t1 -66.5q-2 -29 -10 -36t-37 -11h-23l-448 6q-39 0 -48.5 8.5t-13.5 47.5q-4 29 -3 55.5z" />
<glyph unicode="&#x2014;" horiz-adv-x="1044" d="M8 575q-4 23 5.5 30t33.5 9h78h129h157h158.5t137 1t92.5 1t37 -5t8 -33q4 -35 4 -67t2 -67q0 -37 -33 -38q-31 -2 -61.5 -4.5t-61.5 -2.5q-53 0 -147 -2t-189.5 -5t-172 -5t-97.5 -4q-39 -2 -57.5 6t-20.5 51q-4 41 -1 71t-1 64z" />
<glyph unicode="&#x201c;" horiz-adv-x="1099" d="M5 412.5q1 23.5 22 52.5q53 78 102 159t96 162q18 33 43 50.5t66 13.5q33 -4 64.5 1t64.5 3q57 0 26 -43q-35 -53 -68.5 -102.5t-68.5 -100.5q-23 -35 -44 -70.5t-44 -70.5q-29 -43 -2 -94q41 -78 82 -153t82 -152q4 -10 12 -31t4 -25q-4 -8 -15 -10t-21 -6q-2 0 -23 1 t-47.5 2t-50 1t-29.5 -2q-25 -6 -39 5t-22 30q-35 86 -82 164.5t-93 158.5q-16 33 -15 56.5zM419 441.5q-1 11.5 13 27.5q74 88 145.5 176t145.5 174q10 12 28.5 17.5t34.5 9.5q23 2 45.5 0t57.5 -4h25.5t37.5 -2q8 0 16.5 -3t16.5 -6q-4 -8 -6 -16t-6 -14 q-23 -29 -43.5 -54.5t-42.5 -52.5q-49 -57 -97.5 -112.5t-99.5 -110.5q-31 -37 -8 -78l197 -319q8 -14 19 -27.5t1 -30.5q-8 -10 -24.5 -14t-32.5 -6q-31 -4 -61.5 -4h-59.5q-8 0 -17.5 4t-13.5 10q-25 66 -67.5 119t-77.5 113q-27 47 -56.5 90t-58.5 86q-10 16 -11 27.5z " />
<glyph unicode="&#x201d;" horiz-adv-x="917" d="M11 7q-3 5 14 40q35 80 69.5 160t69.5 158q12 25 10 44t-16 42q-35 66 -68 134t-67 136q-12 27 -7.5 34t35.5 9q41 4 80 5t78 -1q8 0 17.5 -8t13.5 -17q29 -59 59.5 -119.5t58.5 -119.5q12 -25 28.5 -50.5t16.5 -52.5q2 -27 -14 -53t-27 -53q-23 -55 -47 -109.5 t-45 -109.5q-18 -51 -51 -68.5t-82 -13.5q-10 2 -18.5 2h-16.5q-14 0 -26.5 1t-24.5 3q-37 2 -40 7zM406 53q35 72 67.5 144.5t67.5 144.5q20 37 22 70.5t-18 72.5q-25 43 -47.5 88t-44.5 93q-6 10 -12.5 21t-12.5 24q-18 47 33 53q29 4 54.5 4t53.5 4q25 4 42.5 -4 t27.5 -33q37 -78 74 -156.5t75 -156.5q8 -18 3 -30.5t-11 -29.5q-37 -84 -72.5 -165.5t-70.5 -165.5q-10 -23 -21.5 -33t-35.5 -6q-12 2 -31 1t-19 1q-20 -2 -39.5 -2t-39.5 -2q-78 -6 -45 63z" />
<glyph unicode="&#x201e;" horiz-adv-x="1705" />
<glyph unicode="&#x202f;" horiz-adv-x="273" />
<glyph unicode="&#x205f;" horiz-adv-x="341" />
<glyph unicode="&#x25fc;" horiz-adv-x="1310" d="M0 0v1311h1311v-1311h-1311z" />
</font>
</defs>
</svg>
